<svg width="23" height="22" viewBox="0 0 23 22" fill="none" xmlns="http://www.w3.org/2000/svg">
<path d="M12.14 20.18C12.14 20.08 12.14 20 12.14 19.92C12.14 17.34 12.14 14.76 12.14 12.18C12.14 11.65 12.37 11.42 12.9 11.42C13.63 11.42 14.36 11.42 15.08 11.42C15.67 11.42 15.89 11.63 15.89 12.22C15.89 14.79 15.89 17.36 15.89 19.93C15.89 20.01 15.89 20.09 15.89 20.18C16.31 20.18 16.71 20.18 17.14 20.18C17.14 20.09 17.14 20.01 17.14 19.92C17.14 15.96 17.14 11.99 17.14 8.03C17.14 7.49 17.37 7.26001 17.91 7.26001C18.65 7.26001 19.39 7.26001 20.13 7.26001C20.65 7.26001 20.88 7.49001 20.88 8.01001C20.88 11.98 20.88 15.95 20.88 19.92C20.88 20 20.88 20.08 20.88 20.19C21.09 20.19 21.29 20.19 21.49 20.19C21.89 20.19 22.17 20.45 22.17 20.82C22.17 21.18 21.89 21.44 21.48 21.44C14.84 21.44 8.2 21.44 1.56 21.44C1.16 21.44 0.869995 21.18 0.869995 20.82C0.869995 20.46 1.15 20.2 1.55 20.19C1.74 20.19 1.94 20.19 2.16 20.19C2.16 20.1 2.16 20.03 2.16 19.96C2.16 18.62 2.16 17.27 2.16 15.93C2.16 15.45 2.4 15.21 2.89 15.21C3.66 15.21 4.43 15.21 5.2 15.21C5.66 15.21 5.91 15.46 5.91 15.92C5.91 17.26 5.91 18.61 5.91 19.95C5.91 20.02 5.91 20.1 5.91 20.19C6.32 20.19 6.72 20.19 7.16 20.19C7.16 20.12 7.16 20.04 7.16 19.96C7.16 18.12 7.16 16.29 7.16 14.45C7.16 13.96 7.4 13.72 7.88 13.72C8.66 13.72 9.43 13.72 10.21 13.72C10.65 13.72 10.9 13.97 10.9 14.42C10.9 16.26 10.9 18.09 10.9 19.93C10.9 20.01 10.9 20.1 10.9 20.19C11.31 20.18 11.71 20.18 12.14 20.18Z" fill="#054396"/>
<path d="M19.31 1.75001C19.17 1.78001 19.07 1.79999 18.98 1.82999C18.3 2.00999 17.62 2.20001 16.94 2.38001C16.46 2.51001 16.06 2.20002 16.1 1.73002C16.12 1.48002 16.29 1.26001 16.55 1.19001C17.83 0.84001 19.1 0.500012 20.38 0.160012C20.71 0.0700116 21.04 0.260004 21.13 0.590004C21.48 1.87 21.82 3.16001 22.16 4.44001C22.24 4.76001 22.03 5.09002 21.73 5.17002C21.4 5.25002 21.03 5.04002 20.94 4.70002C20.77 4.07002 20.6 3.43 20.43 2.8C20.41 2.71 20.38 2.62 20.35 2.52C19.97 3.07 19.62 3.62002 19.23 4.14002C17.49 6.46002 15.36 8.35001 12.94 9.91001C10.63 11.4 8.16002 12.49 5.47002 13.09C4.18002 13.38 2.88002 13.55 1.56002 13.54C1.17002 13.54 0.890015 13.28 0.890015 12.93C0.890015 12.58 1.16001 12.3 1.55001 12.3C4.97001 12.27 8.12002 11.25 11.07 9.57999C13.79 8.04999 16.15 6.09 18.06 3.62C18.45 3.12 18.78 2.59002 19.14 2.07002C19.19 1.98002 19.23 1.89001 19.31 1.75001Z" fill="#054396"/>
</svg>
