<svg width="21" height="22" viewBox="0 0 21 22" fill="none" xmlns="http://www.w3.org/2000/svg">
<path d="M10.5 0.0499978C10.9 0.0299978 11.2699 0.159991 11.6299 0.339991C14.2299 1.63999 16.83 2.94 19.43 4.24C19.63 4.34 19.79 4.47 19.79 4.72C19.79 4.97 19.6199 5.09 19.4199 5.19C16.7699 6.51 14.1199 7.83999 11.4599 9.16999C10.8099 9.48999 10.16 9.49 9.50995 9.16C7.46995 8.14 5.43995 7.13 3.39995 6.11C2.77995 5.8 2.16995 5.49 1.54995 5.19C1.34995 5.09 1.19995 4.96999 1.19995 4.72999C1.19995 4.47999 1.34995 4.34999 1.55995 4.24999C4.17995 2.93999 6.79995 1.63 9.41995 0.320002C9.74995 0.150002 10.11 0.0299978 10.5 0.0499978Z" fill="#054396"/>
<path d="M9.79 16.37C9.79 17.85 9.79 19.32 9.79 20.8C9.79 21.31 9.47999 21.5 9.01999 21.28C6.62999 20.18 4.25 19.08 1.86 17.98C1.03 17.6 0.619995 16.96 0.619995 16.05C0.619995 13.3 0.619995 10.54 0.619995 7.78999C0.619995 7.73999 0.619995 7.69 0.619995 7.64C0.629995 7.19 0.939995 6.98999 1.34999 7.17999C1.90999 7.42999 2.47 7.69999 3.02999 7.94999C4.97999 8.84999 6.92 9.75 8.87 10.64C9.51 10.93 9.8 11.41 9.79 12.1C9.78 13.52 9.79 14.94 9.79 16.37Z" fill="#054396"/>
<path d="M11.2 16.36C11.2 14.91 11.2 13.45 11.2 12C11.2 11.36 11.5 10.93 12.07 10.66C14.59 9.49001 17.12 8.33 19.65 7.17C20.04 6.99 20.37 7.19001 20.37 7.63001C20.38 8.84001 20.37 10.05 20.37 11.27C20.37 12.86 20.37 14.46 20.37 16.05C20.37 16.63 20.21 17.15 19.78 17.54C19.56 17.74 19.3 17.91 19.03 18.03C16.69 19.12 14.34 20.2 12 21.28C11.5 21.51 11.2 21.32 11.2 20.77C11.2 19.29 11.2 17.82 11.2 16.36Z" fill="#054396"/>
</svg>
