<svg width="16" height="17" viewBox="0 0 16 17" fill="none" xmlns="http://www.w3.org/2000/svg">
<path d="M7.82031 0.570003C8.12031 0.560003 8.4003 0.650004 8.6803 0.790004C10.6503 1.78 12.6302 2.76 14.6002 3.75C14.7502 3.83 14.8702 3.93 14.8802 4.11C14.8802 4.3 14.7502 4.39 14.6002 4.47C12.5902 5.48 10.5703 6.49 8.5603 7.49C8.0703 7.73 7.57032 7.73001 7.08032 7.48001C5.53032 6.71001 3.99031 5.94001 2.44031 5.16001C1.97031 4.93001 1.50027 4.69 1.03027 4.46C0.880273 4.39 0.760254 4.29 0.760254 4.11C0.760254 3.92 0.870273 3.82 1.03027 3.74C3.02027 2.75 5.01024 1.75001 7.00024 0.760005C7.25024 0.640005 7.52031 0.560003 7.82031 0.570003Z" fill="white"/>
<path d="M7.28027 12.96C7.28027 14.08 7.28027 15.2 7.28027 16.32C7.28027 16.71 7.05031 16.85 6.69031 16.69C4.88031 15.85 3.07025 15.02 1.26025 14.18C0.630254 13.89 0.320312 13.4 0.320312 12.71C0.320312 10.62 0.320312 8.53 0.320312 6.44C0.320312 6.4 0.320312 6.36 0.320312 6.32C0.330312 5.98 0.560249 5.83 0.880249 5.97C1.31025 6.16 1.73028 6.36 2.16028 6.56C3.64028 7.24 5.11021 7.93 6.59021 8.61C7.07021 8.83 7.29028 9.2 7.29028 9.72C7.27028 10.8 7.28027 11.88 7.28027 12.96Z" fill="white"/>
<path d="M8.3501 12.95C8.3501 11.85 8.3501 10.74 8.3501 9.64C8.3501 9.16 8.58013 8.82 9.01013 8.63C10.9301 7.74 12.8401 6.86001 14.7601 5.98001C15.0601 5.84001 15.3002 6 15.3102 6.33C15.3202 7.25 15.3102 8.17 15.3102 9.09C15.3102 10.3 15.3102 11.51 15.3102 12.72C15.3102 13.16 15.1901 13.55 14.8701 13.85C14.7101 14 14.5102 14.13 14.3002 14.22C12.5202 15.05 10.7401 15.87 8.96008 16.69C8.58008 16.87 8.3501 16.72 8.3501 16.3C8.3501 15.18 8.3501 14.07 8.3501 12.95Z" fill="white"/>
</svg>
