<svg width="15" height="14" viewBox="0 0 15 14" fill="none" xmlns="http://www.w3.org/2000/svg">
<path d="M2 1.43994C2 1.69994 2 1.93993 2 2.17993C2 2.48993 2.18 2.64991 2.48 2.65991C2.71 2.66991 2.92 2.63996 3.03 2.39996C3.06 2.32996 3.07 2.24993 3.08 2.17993C3.09 1.97993 3.09 1.76995 3.08 1.56995C3.08 1.45995 3.12 1.42993 3.22 1.42993C3.48 1.43993 3.75 1.42993 4.01 1.42993C4.99 1.42993 5.98 1.42993 6.96 1.42993C7.11 1.42993 7.16 1.46993 7.15 1.61993C7.14 1.81993 7.14 2.01996 7.15 2.20996C7.16 2.46996 7.34 2.64991 7.6 2.65991C7.66 2.65991 7.72 2.65991 7.78 2.65991C8.03 2.64991 8.21 2.46992 8.22 2.22992C8.23 2.00992 8.23 1.78996 8.22 1.57996C8.22 1.48996 8.24 1.43994 8.34 1.43994C9.61 1.43994 10.88 1.43994 12.16 1.43994C12.25 1.43994 12.29 1.46994 12.28 1.55994C12.27 1.72994 12.28 1.89996 12.28 2.07996C12.28 2.51996 12.43 2.66991 12.88 2.65991C12.96 2.65991 13.05 2.64993 13.11 2.61993C13.27 2.53993 13.36 2.39991 13.36 2.21991C13.36 1.96991 13.36 1.71996 13.36 1.45996C13.41 1.44996 13.45 1.44995 13.5 1.44995C13.83 1.44995 14.17 1.44995 14.5 1.44995C14.78 1.44995 14.99 1.63992 15 1.91992C15.01 2.81992 15 3.70992 15.01 4.60992C15.01 4.69992 14.97 4.73992 14.88 4.72992C14.84 4.72992 14.81 4.72992 14.77 4.72992C10.05 4.72992 5.32 4.72992 0.599999 4.72992C0.569999 4.72992 0.550001 4.72992 0.520001 4.72992C0.400001 4.73992 0.360001 4.69996 0.360001 4.57996C0.370001 4.25996 0.360001 3.92992 0.360001 3.60992C0.360001 3.07992 0.370001 2.54995 0.360001 2.00995C0.350001 1.69995 0.579999 1.41994 0.919999 1.43994C1.22 1.45994 1.52 1.43994 1.82 1.43994C1.88 1.43994 1.93 1.43994 2 1.43994Z" fill="#02294C"/>
<path d="M1 5.20998C1 5.29998 1 5.35996 1 5.42996C1 7.65996 1.01 9.88996 1 12.12C1 12.55 1.3 12.9199 1.79 12.9099C5.72 12.8999 9.64 12.8999 13.57 12.9099C14.07 12.9099 14.37 12.54 14.37 12.12C14.36 9.88996 14.36 7.65996 14.37 5.42996C14.37 5.35996 14.37 5.29998 14.37 5.20998C14.57 5.20998 14.75 5.20998 14.94 5.20998C14.96 5.20998 14.99 5.24999 15 5.27999C15.01 5.31999 15.01 5.36995 15.01 5.41995C15.01 7.92995 15.01 10.45 15.01 12.96C15.01 13.06 15 13.18 14.96 13.27C14.89 13.45 14.74 13.56 14.54 13.57C14.43 13.58 14.32 13.57 14.21 13.57C9.81 13.57 5.4 13.57 1 13.57C0.88 13.57 0.760002 13.56 0.650002 13.51C0.480002 13.44 0.400001 13.2999 0.380001 13.1099C0.370001 13.0399 0.380001 12.97 0.380001 12.9C0.380001 10.42 0.380001 7.92997 0.380001 5.44997C0.380001 5.16997 0.370001 5.20998 0.630001 5.20998C0.730001 5.20998 0.85 5.20998 1 5.20998Z" fill="#02294C"/>
<path d="M4.54 7.42979C4.64 6.85979 5.01 6.43983 5.51 6.33983C6.12 6.20983 6.69 6.40979 6.98 6.85979C7.31 7.35979 7.17 7.96983 6.67 8.27983C6.64 8.29983 6.61 8.32979 6.56 8.35979C6.65 8.38979 6.72 8.41981 6.79 8.44981C7.22 8.65981 7.44 9.0998 7.37 9.6198C7.27 10.2998 6.75 10.7898 6.06 10.8398C5.49 10.8798 5.01 10.7398 4.69 10.2398C4.58 10.0698 4.53 9.85981 4.44 9.62981C4.65 9.59981 4.81 9.57979 4.99 9.54979C5.09 9.88979 5.19 10.2098 5.55 10.3598C5.78 10.4498 6 10.4498 6.23 10.3698C6.66 10.2198 6.91 9.72981 6.8 9.25981C6.68 8.74981 6.3 8.55982 5.57 8.63982C5.59 8.50982 5.6 8.38982 5.63 8.26982C5.64 8.23982 5.71 8.21982 5.75 8.20982C5.88 8.17982 6.01 8.16981 6.13 8.12981C6.56 7.96981 6.74 7.57979 6.57 7.16979C6.43 6.81979 5.98 6.63978 5.59 6.78978C5.33 6.88978 5.18 7.08978 5.1 7.34978C5.08 7.40978 5.07 7.46979 5.05 7.54979C4.89 7.48979 4.72 7.45979 4.54 7.42979Z" fill="#02294C"/>
<path d="M8.37999 7.87988C8.37999 7.74988 8.36999 7.61987 8.37999 7.48987C8.37999 7.44987 8.42 7.39988 8.46 7.37988C8.93 7.12988 9.34 6.80987 9.65 6.36987C9.7 6.29987 9.87 6.30991 10 6.27991C10 7.79991 10 9.26988 10 10.7499C9.83 10.7499 9.67 10.7499 9.48 10.7499C9.48 9.59988 9.48 8.44987 9.48 7.29987C9.12 7.51987 8.76999 7.71987 8.41999 7.92987C8.40999 7.90987 8.38999 7.89988 8.37999 7.87988Z" fill="#02294C"/>
<path d="M7.42 1.23987C7.42 0.939868 7.42 0.639905 7.42 0.339905C7.42 0.159905 7.48 0.109863 7.68 0.109863C7.87 0.109863 7.93 0.159905 7.94 0.339905C7.94 0.949905 7.94 1.55985 7.94 2.15985C7.94 2.33985 7.89 2.37988 7.69 2.37988C7.48 2.37988 7.43 2.33985 7.43 2.15985C7.42 1.84985 7.42 1.53987 7.42 1.23987Z" fill="#02294C"/>
<path d="M2.28 1.24988C2.28 0.939878 2.28 0.629885 2.28 0.319885C2.28 0.149885 2.34 0.0998535 2.53 0.0998535C2.72 0.0998535 2.79 0.149875 2.79 0.309875C2.79 0.929875 2.79 1.54985 2.79 2.15985C2.79 2.32985 2.73 2.36987 2.53 2.36987C2.34 2.36987 2.28 2.32986 2.28 2.16986C2.28 1.86986 2.28 1.55988 2.28 1.24988Z" fill="#02294C"/>
<path d="M13.08 1.2699C13.08 1.5699 13.08 1.86986 13.08 2.16986C13.08 2.34986 13.03 2.38989 12.82 2.38989C12.62 2.38989 12.57 2.34986 12.57 2.16986C12.57 1.55986 12.57 0.939895 12.57 0.329895C12.57 0.159895 12.63 0.109863 12.82 0.109863C13.01 0.109863 13.07 0.159885 13.07 0.319885C13.08 0.639885 13.08 0.949897 13.08 1.2699Z" fill="#02294C"/>
</svg>
