<svg width="17" height="16" viewBox="0 0 17 16" fill="none" xmlns="http://www.w3.org/2000/svg">
<path d="M14.9803 5.91999C13.6603 5.91999 12.3703 5.91999 11.0503 5.91999C11.2103 5.73999 11.3703 5.58999 11.4903 5.41999C11.6703 5.18999 11.8903 5.14 12.1703 5.14C13.3303 5.15 14.4903 5.14 15.6403 5.14C15.9203 5.14 16.1003 5.32 16.0703 5.58C16.0603 5.63 16.0403 5.68 16.0103 5.73C15.3103 6.88 14.6203 8.03 13.9203 9.18C13.6603 9.61 13.3903 10.04 13.1303 10.47C13.0403 10.63 12.9102 10.7 12.7202 10.7C9.99024 10.7 7.25029 10.7 4.52029 10.7C4.26029 10.7 4.15024 10.6 4.09024 10.35C3.83024 9.21 3.57033 8.08 3.31033 6.94C3.19033 6.43 3.07023 5.92 2.96023 5.41C2.93023 5.28 2.88027 5.23 2.75027 5.23C2.15027 5.24 1.54034 5.23 0.940337 5.23C0.770337 5.23 0.630313 5.19 0.540313 5.03C0.400313 4.76 0.570278 4.46 0.880278 4.46C1.32028 4.45 1.76023 4.46 2.21023 4.46C2.53023 4.46 2.86033 4.46 3.18033 4.46C3.42033 4.46 3.55025 4.56 3.60025 4.79C3.73025 5.32 3.84023 5.84999 3.96023 6.37999C4.21023 7.45999 4.45035 8.54999 4.70035 9.62999C4.71035 9.67999 4.73025 9.71999 4.73025 9.76999C4.74025 9.89999 4.82034 9.93 4.94034 9.93C7.42034 9.93 9.90027 9.93 12.3703 9.93C12.4703 9.93 12.5402 9.92 12.6002 9.82C13.3502 8.57 14.1103 7.33 14.8703 6.08C14.9203 6.04 14.9403 5.98999 14.9803 5.91999Z" fill="#ffffff"/>
<path d="M13.9502 6.58999C13.8102 6.82999 13.6802 7.06 13.5402 7.29C13.1602 7.92 12.7902 8.54 12.4102 9.17C12.3602 9.25999 12.3002 9.3 12.1902 9.3C9.90019 9.3 7.6202 9.3 5.3302 9.3C5.2102 9.3 5.16014 9.27 5.14014 9.15C4.98014 8.37 4.81014 7.58999 4.64014 6.80999C4.63014 6.73999 4.6201 6.67999 4.6001 6.58999C4.6601 6.58999 4.71013 6.58999 4.76013 6.58999C5.59013 6.58999 6.43013 6.58999 7.26013 6.58999C7.38013 6.58999 7.43008 6.61999 7.46008 6.73999C7.55008 7.25999 7.64011 7.77 7.74011 8.29C7.77011 8.47 7.82014 8.64999 7.89014 8.80999C7.93014 8.88999 8.04013 8.96999 8.13013 8.98999C8.39013 9.05999 8.6202 8.95 8.8302 8.8C9.1902 8.54 9.43019 8.17 9.69019 7.83C9.97019 7.45 10.2502 7.06 10.5302 6.68C10.5602 6.64 10.6202 6.6 10.6702 6.6C11.7402 6.6 12.8201 6.6 13.8901 6.6C13.9101 6.57 13.9202 6.57999 13.9502 6.58999Z" fill="#ffffff"/>
<path d="M7.58032 4.23C7.96032 4.37 8.31028 4.5 8.66028 4.63C8.83028 4.69 8.82025 4.69 8.88025 4.52C9.13025 3.72 9.43021 2.94 9.84021 2.2C10.1202 1.7 10.4403 1.22 10.8903 0.849998C10.9403 0.809998 11.0203 0.769997 11.0803 0.769997C12.4903 0.769997 13.9103 0.769997 15.3203 0.769997C15.3203 0.769997 15.3302 0.770001 15.3602 0.790001C13.0402 1.23 11.4902 2.7 10.2302 4.55C10.2402 4.56 10.2402 4.57 10.2502 4.59C10.4602 4.54 10.6602 4.49 10.8702 4.43C11.0702 4.37 11.2702 4.31 11.4902 4.28C10.4502 5.6 9.41023 6.92 8.36023 8.25C8.08023 6.9 7.85032 5.57 7.58032 4.23Z" fill="#ffffff"/>
<path d="M4.93036 12.85C5.02036 12.85 5.08031 12.85 5.13031 12.85C7.24031 12.85 9.35026 12.85 11.4603 12.85C11.6003 12.85 11.7303 12.85 11.8703 12.86C12.0403 12.88 12.1803 13.08 12.1603 13.26C12.1503 13.45 12.0004 13.61 11.8104 13.61C11.4704 13.62 11.1203 13.61 10.7803 13.61C8.62033 13.61 6.46035 13.61 4.30035 13.61C4.13035 13.61 3.98033 13.58 3.90033 13.42C3.81033 13.26 3.85037 13.1 3.94037 12.95C4.30037 12.38 4.6503 11.81 5.0003 11.24C5.1003 11.08 5.23034 11.01 5.41034 11.01C7.52034 11.01 9.62028 11.01 11.7303 11.01C11.9503 11.01 12.0903 11.1 12.1403 11.29C12.1903 11.46 12.1303 11.64 11.9703 11.72C11.8903 11.76 11.7804 11.77 11.6904 11.77C9.72037 11.77 7.74032 11.77 5.77032 11.77C5.62032 11.77 5.54027 11.82 5.47027 11.94C5.33027 12.18 5.18033 12.42 5.03033 12.65C5.00033 12.72 4.97036 12.77 4.93036 12.85Z" fill="#ffffff"/>
<path d="M5.38037 14.71C5.38037 14.15 5.85041 13.69 6.42041 13.69C7.00041 13.69 7.45044 14.15 7.45044 14.73C7.45044 15.3 6.9904 15.76 6.4104 15.75C5.8304 15.75 5.38037 15.29 5.38037 14.71Z" fill="#ffffff"/>
<path d="M10.0002 14.73C10.0002 14.15 10.4603 13.69 11.0403 13.7C11.6103 13.7 12.0703 14.16 12.0703 14.72C12.0703 15.3 11.6203 15.76 11.0403 15.76C10.4603 15.76 10.0002 15.3 10.0002 14.73Z" fill="#ffffff"/>
<path d="M7.15014 5.95C7.07014 5.95 7.02008 5.95 6.97008 5.95C6.11008 5.95 5.24012 5.95 4.38012 5.96C4.17012 5.96 4.0301 5.84 3.9901 5.65C3.9601 5.48 4.05007 5.29 4.21007 5.23C4.27007 5.21 4.33014 5.2 4.40014 5.2C5.16014 5.2 5.91016 5.2 6.67016 5.19C6.76016 5.19 6.8201 5.21 6.8601 5.31C6.9501 5.51 7.04014 5.71 7.15014 5.95Z" fill="#ffffff"/>
</svg>
