<svg width="17" height="16" viewBox="0 0 17 16" fill="none" xmlns="http://www.w3.org/2000/svg">
<path d="M1.41003 10.42C1.04003 9.97998 0.680039 9.54998 0.290039 9.09998C0.410039 8.97998 0.510005 8.88003 0.630005 8.78003C2.48 7.22003 4.34005 5.66998 6.18005 4.09998C6.47005 3.84998 6.63001 3.88001 6.89001 4.14001C7.59001 4.86001 8.33004 5.53999 9.04004 6.23999C9.19004 6.37999 9.31002 6.53 9.52002 6.31C10.67 5.14 11.84 3.98001 13 2.82001C13.02 2.80001 13.0199 2.76997 13.0699 2.65997C12.6699 2.65997 12.3001 2.64997 11.9301 2.65997C11.6501 2.66997 11.5 2.60003 11.52 2.28003C11.54 1.93003 11.53 1.57998 11.52 1.22998C11.51 0.95998 11.61 0.849976 11.89 0.849976C13.21 0.859976 14.54 0.859976 15.86 0.849976C16.15 0.849976 16.23 0.96998 16.23 1.22998C16.22 2.54998 16.23 3.88001 16.22 5.20001C16.22 5.32001 16.07 5.52998 15.98 5.53998C15.49 5.56998 14.99 5.56 14.45 5.56C14.45 5.03 14.45 4.56003 14.45 4.09003C14.41 4.07003 14.38 4.04002 14.34 4.02002C12.69 5.67002 11.03 7.32001 9.33997 9.01001C9.04997 8.73001 8.79003 8.48999 8.53003 8.23999C7.97003 7.69999 7.39999 7.17999 6.87 6.60999C6.56999 6.28999 6.38002 6.25 6.02002 6.56C4.60002 7.8 3.13995 9.00002 1.69995 10.21C1.61995 10.27 1.53003 10.33 1.41003 10.42Z" fill="#6CCF59"/>
<path d="M13.5501 6.21997C13.5601 6.33997 13.57 6.46002 13.57 6.58002C13.57 9.46002 13.56 12.33 13.58 15.21C13.58 15.63 13.4601 15.76 13.0401 15.75C11.8001 15.74 11.8001 15.75 11.8001 14.51C11.8001 12.41 11.7901 10.31 11.8101 8.21002C11.8101 7.98002 11.93 7.70998 12.09 7.53998C12.51 7.04998 12.9801 6.60001 13.4301 6.14001C13.4701 6.17001 13.5101 6.18997 13.5501 6.21997Z" fill="#6CCF59"/>
<path d="M6.5799 7.39001C6.8199 7.68001 7.10994 8.00999 7.36994 8.35999C7.45994 8.47999 7.48994 8.67001 7.49994 8.82001C7.50994 10.98 7.49995 13.14 7.50995 15.3C7.50995 15.63 7.41989 15.75 7.06989 15.75C5.71989 15.76 5.71991 15.78 5.71991 14.43C5.71991 12.53 5.7399 10.63 5.7099 8.72998C5.6999 8.14998 5.8199 7.73001 6.5799 7.39001Z" fill="#6CCF59"/>
<path d="M4.44 9.06C4.46 9.32 4.48003 9.45002 4.48003 9.58002C4.48003 11.46 4.47004 13.35 4.49004 15.23C4.49004 15.62 4.38003 15.76 3.98003 15.75C2.69003 15.73 2.69 15.75 2.69 14.48C2.69 13.3 2.68 12.11 2.7 10.93C2.7 10.72 2.83003 10.47 2.98003 10.32C3.41003 9.90001 3.88 9.53 4.44 9.06Z" fill="#6CCF59"/>
<path d="M8.75 9.72998C9.01 9.94998 9.15999 10.07 9.35999 10.24C9.71999 9.88999 10.08 9.54 10.5 9.12C10.52 9.33 10.54 9.45 10.54 9.56C10.54 11.46 10.53 13.36 10.55 15.26C10.55 15.64 10.4401 15.75 10.0601 15.75C8.75006 15.75 8.75 15.76 8.75 14.44C8.75 13.07 8.75 11.7 8.75 10.33C8.75 10.18 8.75 10.02 8.75 9.72998Z" fill="#6CCF59"/>
</svg>
