<svg width="15" height="14" viewBox="0 0 15 14" fill="none" xmlns="http://www.w3.org/2000/svg">
<path d="M14.9598 0.620003C14.9598 2.12 14.9598 3.61 14.9598 5.11C14.4798 5.11 14.0199 5.11 13.5199 5.11C13.5199 4.11 13.5199 3.12 13.5199 2.1C9.6999 2.1 5.90996 2.1 2.07996 2.1C2.07996 3.1 2.07996 4.09 2.07996 5.11C1.57996 5.11 1.11988 5.11 0.629883 5.11C0.629883 3.62 0.629883 2.14 0.629883 0.620003C5.39988 0.620003 10.1698 0.620003 14.9598 0.620003Z" fill="#054396"/>
<path d="M8.92004 5.07V8.84H12.16C12.18 8.88 12.1801 8.89 12.2001 8.93L7.77002 13.52L3.27002 8.86H6.59998V5.07H8.92004Z" fill="#054396"/>
</svg>
