<svg width="21" height="21" viewBox="0 0 21 21" fill="none" xmlns="http://www.w3.org/2000/svg">
<path d="M3.03003 10.75C2.56003 10.47 2.11003 10.23 1.68003 9.94C1.22003 9.63 0.840029 9.23999 0.590029 8.73999C0.460029 8.48999 0.37003 8.23001 0.38003 7.95001C0.39003 7.46001 0.38003 6.97001 0.38003 6.48001C0.38003 6.06001 0.53003 5.69998 0.77003 5.35998C1.09003 4.89998 1.51003 4.55 1.99003 4.26C2.25003 4.1 2.52003 3.95999 2.79003 3.80999C2.84003 3.77999 2.89003 3.72999 2.90003 3.67999C3.11003 2.86999 3.65003 2.31999 4.31003 1.86999C5.23003 1.25999 6.24003 0.88001 7.31003 0.64001C8.37003 0.40001 9.44003 0.299991 10.53 0.339991C11.23 0.369991 11.93 0.379995 12.62 0.499995C13.84 0.699995 15.03 1.03 16.1 1.66C16.65 1.98 17.15 2.37001 17.51 2.92001C17.72 3.24001 17.87 3.58001 17.86 3.98001C17.86 4.44001 17.86 4.89999 17.86 5.36999C17.86 5.61999 17.82 5.85999 17.73 6.08999C17.69 6.17999 17.71 6.22998 17.8 6.26998C18.29 6.47998 18.75 6.72999 19.17 7.05999C19.65 7.42999 20.06 7.87001 20.26 8.45001C20.31 8.58001 20.34 8.72999 20.35 8.86999C20.36 9.37999 20.35 9.88001 20.36 10.39C20.37 10.83 20.21 11.21 19.96 11.57C19.54 12.16 18.98 12.58 18.35 12.9C18.03 13.06 17.78 13.24 17.69 13.6C17.66 13.74 17.57 13.86 17.49 13.98C17.45 14.05 17.45 14.11 17.49 14.18C17.52 14.22 17.54 14.27 17.57 14.32C17.77 14.66 17.87 15.03 17.86 15.43C17.85 15.82 17.85 16.22 17.86 16.61C17.87 17.09 17.7 17.5 17.43 17.88C17.14 18.28 16.76 18.6 16.35 18.86C15.57 19.37 14.71 19.69 13.81 19.93C12.45 20.29 11.07 20.37 9.67003 20.33C8.44003 20.29 7.24003 20.07 6.07003 19.67C5.29003 19.4 4.55003 19.04 3.91003 18.51C3.49003 18.16 3.14003 17.74 2.97003 17.21C2.94003 17.11 2.91003 17.01 2.91003 16.91C2.90003 16.35 2.90003 15.79 2.90003 15.24C2.90003 14.87 3.05003 14.55 3.23003 14.24C3.29003 14.15 3.29003 14.08 3.23003 13.98C2.99003 13.6 2.87003 13.19 2.89003 12.74C2.91003 12.28 2.89003 11.82 2.91003 11.37C2.92003 11.21 2.98003 11.05 3.02003 10.89C3.01003 10.82 3.03003 10.77 3.03003 10.75ZM10.62 7.22C10.91 7.2 11.48 7.16998 12.05 7.10998C13.1 6.99998 14.12 6.74 15.09 6.32C15.79 6.01 16.42 5.58998 16.91 4.98998C17.18 4.64998 17.3 4.25 17.21 3.82C17.14 3.5 16.96 3.24 16.74 2.99999C16.24 2.44 15.6 2.08 14.92 1.79C13.53 1.21 12.06 0.989986 10.56 0.959986C9.86003 0.939986 9.17003 0.989991 8.48003 1.08999C7.49003 1.22999 6.52003 1.47001 5.60003 1.89001C4.93003 2.19001 4.33003 2.57999 3.86003 3.14999C3.60003 3.46999 3.44003 3.81999 3.49003 4.24999C3.54003 4.62 3.72003 4.90999 3.97003 5.17999C4.48003 5.73999 5.11003 6.11999 5.80003 6.39999C7.25003 6.97999 8.77003 7.21 10.62 7.22ZM8.83003 11.56C8.84003 11.58 8.84003 11.58 8.85003 11.59C8.88003 11.6 8.91003 11.61 8.94003 11.62C9.84003 11.91 10.76 12.09 11.7 12.16C12.69 12.24 13.68 12.23 14.67 12.09C15.7 11.95 16.71 11.71 17.66 11.27C18.26 10.99 18.82 10.66 19.26 10.16C19.55 9.84 19.76 9.47001 19.73 9.01C19.71 8.60001 19.5 8.26 19.23 7.97C18.78 7.48 18.21 7.16 17.61 6.88C17.31 6.74 17.38 6.71001 17.13 6.95001C16.69 7.36001 16.21 7.69999 15.67 7.95999C15.45 8.06999 15.32 8.20999 15.23 8.45999C14.99 9.16999 14.47 9.67998 13.85 10.08C12.58 10.9 11.15 11.26 9.67003 11.46C9.40003 11.51 9.12003 11.53 8.83003 11.56ZM3.71003 14.63C3.51003 14.98 3.43003 15.35 3.56003 15.74C3.70003 16.18 4.00003 16.5 4.34003 16.79C4.90003 17.25 5.54003 17.56 6.21003 17.81C7.23003 18.18 8.28003 18.37 9.36003 18.45C10.71 18.54 12.06 18.46 13.38 18.15C14.32 17.93 15.22 17.6 16.02 17.06C16.45 16.77 16.83 16.44 17.08 15.97C17.32 15.5 17.28 15.05 16.99 14.61C16.94 14.65 16.89 14.69 16.84 14.73C16.74 14.81 16.65 14.89 16.55 14.96C15.87 15.46 15.1 15.77 14.3 16.03C13.22 16.37 12.11 16.54 10.98 16.59C9.66003 16.64 8.36003 16.54 7.07003 16.22C6.21003 16.01 5.37003 15.72 4.61003 15.25C4.29003 15.06 4.01003 14.84 3.71003 14.63ZM11.9 9.07C11.57 9.07 11.22 9.07 10.87 9.07C9.90003 9.08 8.93003 9.06999 7.97003 8.89999C7.02003 8.71999 6.09003 8.47999 5.22003 8.05999C4.54003 7.73999 3.92003 7.34998 3.43003 6.76998C3.08003 6.34998 2.86003 5.88 2.87003 5.32C2.87003 5.1 2.85003 4.88 2.85003 4.66C2.85003 4.62 2.84003 4.57998 2.84003 4.51998C2.22003 4.83998 1.67003 5.20999 1.29003 5.77999C0.89003 6.37999 0.920028 6.95998 1.37003 7.51998C1.84003 8.11998 2.46003 8.52 3.15003 8.82C4.42003 9.39 5.77003 9.63999 7.16003 9.70999C8.32003 9.76999 9.47003 9.69001 10.61 9.45001C11.04 9.35001 11.49 9.23 11.9 9.07ZM14.42 14.08C14.42 14.07 14.42 14.06 14.41 14.05C14.37 14.05 14.33 14.05 14.3 14.05C14.04 14.06 13.78 14.07 13.52 14.08C12.42 14.1 11.31 14.08 10.22 13.86C9.20003 13.65 8.20003 13.36 7.29003 12.86C6.67003 12.52 6.13003 12.09 5.72003 11.51C5.70003 11.48 5.66003 11.46 5.62003 11.45C5.26003 11.37 4.91003 11.29 4.55003 11.21C4.29003 11.15 4.04003 11.08 3.78003 11C3.67003 10.97 3.60003 10.99 3.57003 11.11C3.53003 11.29 3.47003 11.46 3.47003 11.64C3.46003 12.02 3.64003 12.34 3.88003 12.63C4.25003 13.07 4.73003 13.39 5.24003 13.65C6.52003 14.31 7.90003 14.6 9.32003 14.7C10.07 14.75 10.83 14.75 11.58 14.68C12.43 14.6 13.26 14.45 14.08 14.19C14.2 14.16 14.31 14.11 14.42 14.08Z" fill="#054396"/>
</svg>
