<svg width="14" height="21" viewBox="0 0 14 21" fill="none" xmlns="http://www.w3.org/2000/svg">
<path d="M6.91001 20.25C6.55001 20.25 6.18001 20.25 5.82001 20.25C5.58001 20.25 5.46001 20.15 5.43001 19.91C5.41001 19.77 5.42 19.62 5.42 19.48C5.42 19.13 5.41 18.77 5.42 18.42C5.42 18.29 5.38001 18.24 5.25001 18.21C3.99001 17.91 2.87001 17.32 1.88001 16.49C1.54001 16.2 1.24 15.88 0.940004 15.55C0.660004 15.25 0.680007 15.07 0.970007 14.79C1.57001 14.22 2.17001 13.65 2.77001 13.08C3.07001 12.8 3.25001 12.79 3.57001 13.05C3.94001 13.35 4.29001 13.67 4.68001 13.95C5.21001 14.33 5.79001 14.63 6.44001 14.74C6.94001 14.82 7.44 14.81 7.92 14.64C8.56 14.42 8.90001 13.88 8.83001 13.2C8.81001 13 8.71001 12.84 8.58001 12.7C8.26001 12.37 7.88 12.16 7.46 12C6.78 11.73 6.09001 11.5 5.41001 11.23C4.56001 10.88 3.76001 10.45 3.04001 9.87C1.47001 8.58 1.14 6.78999 1.6 5.23999C1.91 4.17999 2.61001 3.41 3.57001 2.88C4.10001 2.58 4.67001 2.39001 5.26001 2.26001C5.37001 2.24001 5.41001 2.19999 5.41001 2.07999C5.40001 1.65999 5.41001 1.23 5.41001 0.809998C5.41001 0.429998 5.57001 0.279999 5.94001 0.279999C6.56001 0.279999 7.19 0.279999 7.81 0.279999C8.2 0.279999 8.39001 0.479985 8.39001 0.859985C8.39001 1.24999 8.39001 1.64 8.39001 2.03C8.39001 2.15 8.43001 2.18999 8.54001 2.20999C9.85001 2.46999 11.01 3.03999 12.01 3.92999C12.14 4.04999 12.26 4.17999 12.37 4.32999C12.53 4.54999 12.53 4.73001 12.36 4.95001C12.24 5.10001 12.11 5.24001 11.97 5.39001C11.52 5.87001 11.08 6.34001 10.63 6.82001C10.34 7.13001 10.14 7.14001 9.81 6.88C9.41 6.58 9.02 6.24999 8.59 5.98999C7.9 5.56999 7.15001 5.48999 6.37001 5.70999C6.24001 5.74999 6.12001 5.79999 6.00001 5.85999C5.44001 6.17999 5.34 6.90999 5.81 7.35999C6.1 7.63999 6.46001 7.8 6.83001 7.94C7.67001 8.24 8.51 8.53 9.34 8.84C10.11 9.13 10.86 9.47999 11.52 9.98999C12.5 10.75 13.03 11.74 13.09 12.98C13.19 15.13 12.07 16.93 10.04 17.81C9.57001 18.02 9.05 18.14 8.56 18.28C8.43 18.32 8.39001 18.36 8.40001 18.49C8.41001 18.92 8.40001 19.35 8.40001 19.78C8.40001 20.16 8.28001 20.29 7.90001 20.29C7.57001 20.25 7.24001 20.25 6.91001 20.25Z" fill="#054396"/>
</svg>
