<svg width="11" height="11" viewBox="0 0 11 11" fill="none" xmlns="http://www.w3.org/2000/svg">
<path d="M5.52999 0.270053C8.30999 0.280053 10.54 2.53006 10.53 5.28006C10.51 8.06006 8.27 10.2801 5.5 10.2701C2.74 10.2501 0.5 8.01004 0.52 5.26004C0.53 2.49004 2.76999 0.260053 5.52999 0.270053ZM4.46 4.97C4.57 4.85 4.7 4.79004 4.85 4.76004C4.96 4.74004 4.99999 4.76003 5.00999 4.87003C5.00999 5.01003 5.00999 5.15001 4.97999 5.29001C4.86999 5.82001 4.75999 6.34003 4.64 6.87003C4.56999 7.18003 4.50999 7.49003 4.52999 7.81003C4.53999 8.05003 4.63 8.26003 4.85 8.37003C5.33 8.62003 5.80999 8.59002 6.25999 8.30002C6.53999 8.12002 6.67 7.82001 6.82 7.54001C6.83 7.53001 6.81999 7.50002 6.80999 7.49002C6.72999 7.43002 6.64 7.36002 6.55 7.30002C6.53 7.36002 6.51 7.40004 6.49 7.44004C6.42 7.56004 6.35999 7.69002 6.27999 7.80002C6.21999 7.88002 6.12999 7.95003 6.03999 8.00003C5.92999 8.06003 5.87999 8.02001 5.83999 7.91001C5.73999 7.61001 5.76 7.31004 5.82 7.01004C5.91 6.56004 6.01 6.11001 6.11 5.66001C6.17 5.36001 6.22 5.07004 6.16 4.76004C6.11 4.52004 5.99999 4.31005 5.83999 4.14005C5.59999 3.88005 5.23999 3.85003 4.91999 4.06003C4.65999 4.22003 4.44999 4.44002 4.25999 4.67002C4.24999 4.69002 4.24999 4.73003 4.25999 4.75003C4.30999 4.81003 4.38 4.88 4.46 4.97ZM4.83 2.77005C4.84 2.84005 4.85 2.94006 4.88 3.03006C4.96 3.25006 5.09999 3.41005 5.33999 3.45005C5.69999 3.51005 6.04 3.31006 6.16 2.96006C6.26 2.68006 6.2 2.35003 6 2.18003C5.76 1.97003 5.49 1.95004 5.21 2.07004C4.94 2.21004 4.85 2.46005 4.83 2.77005Z" fill="#054396"/>
</svg>
