<svg width="21" height="21" viewBox="0 0 21 21" fill="none" xmlns="http://www.w3.org/2000/svg">
<path d="M13.2201 14.99C13.0801 15.12 12.9301 15.25 12.7901 15.39C11.6101 16.57 10.4401 17.75 9.25006 18.92C7.89006 20.26 6.28006 20.71 4.43006 20.25C2.15006 19.68 0.62006 17.4 0.90006 15.06C1.06006 13.75 1.67006 12.71 2.60006 11.8C3.77006 10.66 4.92006 9.5 6.07006 8.34C7.89006 6.5 10.5801 6.26995 12.6301 7.78995C12.8101 7.91995 12.9801 8.07996 13.1301 8.22996C13.6001 8.69996 13.6201 9.44998 13.1701 9.93998C12.6501 10.51 11.9201 10.57 11.3701 10.12C11.1001 9.89997 10.8101 9.66995 10.4801 9.53995C9.61006 9.18995 8.77006 9.32996 8.10006 9.97996C6.73006 11.3 5.37006 12.65 4.06006 14.03C2.90006 15.25 3.44006 17.27 5.03006 17.73C5.92006 17.99 6.72006 17.78 7.38006 17.12C8.15006 16.36 8.91006 15.6 9.66006 14.83C9.82006 14.67 9.94006 14.62 10.1701 14.7C11.0901 15.02 12.0301 15.09 12.9901 14.95C13.0401 14.94 13.1001 14.94 13.1601 14.94C13.1901 14.95 13.2101 14.97 13.2201 14.99Z" fill="#054396"/>
<path d="M8.53003 5.9C8.78003 5.65 9.00003 5.41999 9.22003 5.19999C10.38 4.04999 11.51 2.86996 12.69 1.73996C14.58 -0.0700351 17.68 -4.00543e-05 19.51 1.85996C21.26 3.63996 21.37 6.61996 19.65 8.48996C18.24 10.02 16.75 11.5099 15.21 12.9099C13.37 14.5799 10.31 14.4 8.61003 12.62C8.11003 12.1 8.12003 11.37 8.62003 10.86C9.15003 10.32 9.87003 10.28 10.42 10.78C11.48 11.74 12.82 11.71 13.82 10.71C15.1 9.43 16.38 8.15997 17.65 6.86997C18.34 6.16997 18.49 5.03998 18.03 4.18998C17.34 2.89998 15.6 2.60996 14.5 3.60996C13.93 4.12996 13.39 4.69997 12.84 5.24997C12.56 5.52997 12.28 5.82 11.99 6.09C11.92 6.15 11.78 6.19997 11.69 6.17997C10.7 5.83997 9.69003 5.73996 8.65003 5.91996C8.63003 5.91996 8.60003 5.91 8.53003 5.9Z" fill="#054396"/>
</svg>
