<svg width="22" height="23" viewBox="0 0 22 23" fill="none" xmlns="http://www.w3.org/2000/svg">
<path d="M9.12994 0.839996C6.62994 0.839996 4.12994 0.839996 1.62994 0.839996C0.809944 0.839996 0.439941 1.20999 0.439941 2.03999C0.439941 3.60999 0.439941 5.18 0.439941 6.75C0.439941 8.32 0.439941 9.89001 0.439941 11.46C0.439941 12.32 0.799941 12.68 1.66994 12.68C4.16994 12.68 6.66994 12.68 9.16994 12.68C9.95994 12.68 10.3399 12.32 10.3399 11.53C10.3399 8.37 10.3399 5.21 10.3399 2.05C10.3299 1.19 9.97994 0.839996 9.12994 0.839996ZM8.37994 10.4C8.37994 10.59 8.36994 10.72 8.10994 10.72C6.26994 10.71 4.43994 10.72 2.59994 10.72C2.54994 10.72 2.49994 10.71 2.39994 10.7C2.39994 10.32 2.39994 9.97 2.39994 9.61C2.39994 7.45 2.39994 5.27999 2.38994 3.12C2.38994 2.88 2.44994 2.81 2.69994 2.81C4.48994 2.82 6.26994 2.82 8.05994 2.81C8.28994 2.81 8.37994 2.87 8.37994 3.12C8.36994 5.54 8.37994 7.96999 8.37994 10.4Z" fill="white"/>
<path d="M22 16.82C22 15.1 22 13.37 22 11.65C22 10.97 21.59 10.57 20.91 10.56C20.82 10.56 20.73 10.56 20.63 10.56C18.21 10.56 15.8 10.57 13.38 10.56C12.43 10.56 12.09 10.89 12.09 11.85C12.09 13.39 12.09 14.93 12.09 16.47C12.09 18.07 12.09 19.67 12.09 21.27C12.09 22.04 12.48 22.41 13.25 22.41C15.75 22.41 18.25 22.41 20.75 22.41C21.63 22.41 21.99 22.04 21.99 21.17C22 19.71 22 18.27 22 16.82ZM19.76 20.44C17.97 20.43 16.17 20.43 14.38 20.44C14.16 20.44 14.06 20.4 14.06 20.14C14.07 17.7 14.07 15.27 14.07 12.83C14.07 12.74 14.08 12.65 14.09 12.55C16.08 12.55 18.04 12.55 20.02 12.55C20.03 12.64 20.04 12.72 20.04 12.8C20.04 15.26 20.04 17.71 20.04 20.17C20.04 20.38 19.97 20.44 19.76 20.44Z" fill="white"/>
<path d="M13.12 8.74001C13.22 8.75001 13.32 8.75 13.43 8.75C15.9 8.75 18.37 8.75001 20.84 8.74001C21.64 8.74001 22 8.37 22 7.58C22 5.72 22 3.86999 22 2.00999C22 1.22999 21.62 0.839996 20.84 0.839996C19.59 0.839996 18.33 0.839996 17.08 0.839996C15.81 0.839996 14.55 0.839996 13.28 0.839996C12.46 0.839996 12.1 1.2 12.1 2.02C12.1 3.13 12.1 4.24 12.1 5.36C12.1 6.15 12.1 6.93 12.11 7.72C12.13 8.35 12.49 8.70001 13.12 8.74001ZM14.05 3.08C14.05 2.86 14.13 2.81 14.33 2.81C16.15 2.82 17.96 2.81 19.78 2.81C19.93 2.81 20.03 2.83 20.03 3.02C20.02 4.22 20.02 5.43001 20.02 6.63C20.02 6.67 20 6.70999 19.99 6.78999C19.86 6.78999 19.73 6.78999 19.6 6.78999C17.87 6.78999 16.13 6.78 14.4 6.8C14.13 6.8 14.05 6.72001 14.05 6.46001C14.07 5.33001 14.06 4.2 14.05 3.08Z" fill="white"/>
<path d="M9.25994 14.5C6.69994 14.49 4.13994 14.49 1.57994 14.5C0.809945 14.5 0.439941 14.88 0.439941 15.66C0.439941 17.53 0.439941 19.39 0.439941 21.26C0.439941 22.02 0.829941 22.41 1.59994 22.41C2.86994 22.41 4.12994 22.41 5.39994 22.41C6.67994 22.41 7.94995 22.41 9.22995 22.41C9.94995 22.41 10.3399 22.04 10.3499 21.33C10.3599 19.41 10.3499 17.49 10.3399 15.58C10.3199 14.88 9.93995 14.5 9.25994 14.5ZM8.38994 20.1C8.38994 20.37 8.29994 20.44 8.03994 20.44C6.25994 20.43 4.48994 20.44 2.70994 20.44C2.52994 20.44 2.39994 20.44 2.39994 20.19C2.40994 19.02 2.40994 17.84 2.40994 16.67C2.40994 16.62 2.41994 16.57 2.42994 16.46C2.62994 16.46 2.80994 16.46 2.98994 16.46C4.66994 16.46 6.35994 16.47 8.03994 16.45C8.30994 16.45 8.38994 16.52 8.37994 16.79C8.36994 17.9 8.36994 19 8.38994 20.1Z" fill="white"/>
</svg>
