<svg width="43" height="56" viewBox="0 0 43 56" fill="none" xmlns="http://www.w3.org/2000/svg">
<path d="M19 42.61C20.1 42 21.1399 41.39 22.2299 40.86C22.3799 40.79 22.7899 41.06 22.9799 41.27C25.7299 44.13 28.4599 46.99 31.1899 49.86C32.9899 51.75 35.2699 51.93 36.9599 50.3C38.7999 48.53 38.82 45.95 37.05 44.12C33.7 40.63 30.34 37.14 27.03 33.61C26.05 32.57 24.92 32.28 23.64 32.6C22.75 32.82 21.89 33.21 21.05 33.59C20.2 33.98 19.39 34.18 18.56 33.59C17.56 32.88 17.45 31.64 18.29 30.67C21.13 27.37 26.1099 27.17 29.2099 30.32C32.8199 34 36.4 37.72 39.91 41.51C43.77 45.69 42.49 52.23 37.4 54.7C34.61 56.06 31.2799 55.47 28.8399 53C25.5999 49.73 22.47 46.36 19.3 43.03C19.19 42.93 19.13 42.81 19 42.61Z" fill="#054396"/>
<path d="M1.47997 17.18C2.29997 18.2 3.09998 19.18 3.86998 20.19C3.98998 20.35 3.97994 20.64 3.94994 20.86C3.72994 22.48 4.23 23.79 5.39 24.97C8.74 28.39 12.02 31.87 15.31 35.35C16.12 36.21 17.0899 36.58 18.1899 36.33C19.2099 36.1 20.21 35.71 21.17 35.28C22.05 34.89 22.88 34.68 23.72 35.29C24.71 36.02 24.7899 37.25 23.9399 38.23C21.1599 41.39 16.2 41.7 13.24 38.73C9.44998 34.93 5.73996 31.03 2.09996 27.08C-0.390039 24.4 -0.580034 19.93 1.47997 17.18Z" fill="#054396"/>
<path d="M15.35 23.36C16.46 22.84 17.5501 22.32 18.6601 21.82C18.7901 21.76 19.0601 21.79 19.1501 21.89C20.5201 23.3 21.8601 24.72 23.2901 26.22C22.1601 26.85 21.13 27.44 20.08 27.99C19.95 28.06 19.6401 27.99 19.5301 27.88C18.1301 26.43 16.75 24.95 15.36 23.48C15.34 23.45 15.35 23.38 15.35 23.36Z" fill="#054396"/>
<path d="M12.17 0.339996C6.17004 0.339996 1.31006 5.20001 1.31006 11.2C1.31006 17.2 6.17004 22.06 12.17 22.06C18.17 22.06 23.03 17.2 23.03 11.2C23.03 5.20001 18.17 0.339996 12.17 0.339996ZM19.29 7.34C16.87 10.36 14.4799 13.4 12.0699 16.43C11.6699 16.93 11.28 17.43 10.89 17.94C10.69 18.21 10.5 18.3 10.2 18.05C8.57995 16.75 6.94006 15.45 5.31006 14.17C5.00006 13.93 4.99 13.7 5.25 13.42C5.38 13.28 5.47998 13.12 5.59998 12.98C6.37998 12.03 6.14996 11.98 7.20996 12.82C8.19996 13.6 9.18001 14.38 10.26 15.23C11.45 13.71 12.58 12.26 13.71 10.82C14.99 9.20001 16.29 7.58999 17.55 5.95999C17.85 5.56999 18.09 5.50001 18.45 5.85001C18.68 6.07001 18.93 6.27001 19.2 6.45001C19.61 6.71001 19.6 6.95 19.29 7.34Z" fill="#054396"/>
</svg>
