<svg width="14" height="13" viewBox="0 0 14 13" fill="none" xmlns="http://www.w3.org/2000/svg">
<path d="M1.14 12.6799C0.589999 12.6799 0.139999 12.2299 0.139999 11.6799V1.67993C0.139999 1.12993 0.589999 0.679932 1.14 0.679932C1.69 0.679932 2.14 1.12993 2.14 1.67993V11.6799C2.14 12.2299 1.69 12.6799 1.14 12.6799Z" fill="#02294C"/>
<path d="M12.48 2.67993H5.14999C4.59999 2.67993 4.14999 2.22993 4.14999 1.67993C4.14999 1.12993 4.59999 0.679932 5.14999 0.679932H12.48C13.03 0.679932 13.48 1.12993 13.48 1.67993C13.48 2.22993 13.03 2.67993 12.48 2.67993Z" fill="#02294C"/>
<path d="M12.48 7.67993H5.14999C4.59999 7.67993 4.14999 7.22993 4.14999 6.67993C4.14999 6.12993 4.59999 5.67993 5.14999 5.67993H12.48C13.03 5.67993 13.48 6.12993 13.48 6.67993C13.48 7.22993 13.03 7.67993 12.48 7.67993Z" fill="#02294C"/>
<path d="M12.48 12.6799H5.14999C4.59999 12.6799 4.14999 12.2299 4.14999 11.6799C4.14999 11.1299 4.59999 10.6799 5.14999 10.6799H12.48C13.03 10.6799 13.48 11.1299 13.48 11.6799C13.48 12.2299 13.03 12.6799 12.48 12.6799Z" fill="#02294C"/>
</svg>
