<svg width="180" height="47" viewBox="0 0 180 47" fill="none" xmlns="http://www.w3.org/2000/svg">
<path d="M131.79 30.7C130.75 22.34 130.8 13.85 131.94 5.5C128.52 5.81 125.11 6.32 121.74 7.01C120.81 7.2 119.88 7.4 118.94 7.4C118.21 7.39 117.49 7.26 116.78 7.13C115.01 6.81 113.25 6.48 111.48 6.16C109.2 5.74 106.91 5.32 104.59 5.39C102.98 5.44 101.38 5.72 99.79 6.01C96.82 6.54 93.86 7.07 90.89 7.6L90.87 7.55C91.52 16.07 91.78 24.68 90.42 33.12C90.08 35.22 89.66 37.47 90.55 39.41C94.5 38.28 98.54 37.14 102.65 37.34C104.25 37.42 105.84 37.7 107.39 38.1C109.69 38.68 111.93 39.51 114.26 39.94C117.43 40.52 120.69 40.35 123.91 40.18C126.08 40.06 128.25 39.95 130.42 39.83C130.77 39.81 131.15 39.78 131.42 39.56C131.66 39.36 131.76 39.06 131.84 38.76C132.56 36.13 132.13 33.37 131.79 30.7ZM118.86 33.17L118.83 19.77L112.26 30.81H109.93L103.39 20.06V33.17H98.54V10.84H102.82L111.18 24.72L119.41 10.84H123.65L123.71 33.17H118.86Z" fill="#054396"/>
<path d="M10.465 32.3933C8.6357 32.3933 6.87026 32.1699 5.16864 31.7233C3.48828 31.2553 2.11634 30.6597 1.05283 29.9366L3.12669 25.2784C4.12639 25.9165 5.27499 26.4482 6.57248 26.8736C7.89124 27.2778 9.19937 27.4798 10.4969 27.4798C11.3689 27.4798 12.0709 27.4054 12.6026 27.2565C13.1344 27.0863 13.5172 26.8736 13.7512 26.6184C14.0065 26.3419 14.1341 26.0228 14.1341 25.6612C14.1341 25.1507 13.9001 24.7466 13.4322 24.4488C12.9642 24.151 12.358 23.9064 11.6135 23.715C10.8691 23.5235 10.0395 23.3321 9.12492 23.1407C8.23157 22.9492 7.32758 22.7046 6.41295 22.4069C5.5196 22.1091 4.70069 21.7262 3.95623 21.2583C3.21177 20.769 2.60556 20.1416 2.13762 19.3758C1.66967 18.5888 1.43569 17.5998 1.43569 16.4086C1.43569 15.0686 1.79729 13.8562 2.52048 12.7714C3.26494 11.6866 4.371 10.8145 5.83865 10.1551C7.30631 9.49576 9.13556 9.16607 11.3264 9.16607C12.7941 9.16607 14.2298 9.33624 15.6336 9.67656C17.0588 9.99562 18.3243 10.4742 19.4304 11.1123L17.4842 15.8024C16.4206 15.2281 15.3678 14.8027 14.3255 14.5262C13.2833 14.2284 12.2729 14.0795 11.2945 14.0795C10.4224 14.0795 9.72049 14.1752 9.18873 14.3667C8.65697 14.5368 8.27411 14.7708 8.04013 15.0686C7.80616 15.3664 7.68917 15.7067 7.68917 16.0896C7.68917 16.5788 7.91251 16.9723 8.35919 17.2701C8.82714 17.5466 9.43334 17.7806 10.1778 17.972C10.9435 18.1422 11.7731 18.323 12.6664 18.5144C13.5811 18.7058 14.485 18.9504 15.3784 19.2482C16.293 19.5247 17.1226 19.9076 17.867 20.3968C18.6115 20.8648 19.2071 21.4922 19.6537 22.2792C20.1217 23.045 20.3557 24.0128 20.3557 25.1826C20.3557 26.4801 19.9834 27.6819 19.239 28.788C18.5158 29.8727 17.4204 30.7448 15.9527 31.4042C14.5063 32.0636 12.6771 32.3933 10.465 32.3933ZM34.2493 14.3667C35.5893 14.3667 36.8017 14.6432 37.8865 15.1962C38.9713 15.728 39.8221 16.5575 40.4389 17.6848C41.077 18.8122 41.3961 20.2692 41.3961 22.0559V31.9466H35.334V23.045C35.334 21.8113 35.0788 20.9179 34.5683 20.3649C34.0791 19.7906 33.3878 19.5035 32.4945 19.5035C31.8563 19.5035 31.2714 19.6523 30.7397 19.9501C30.2079 20.2266 29.7931 20.6627 29.4953 21.2583C29.1976 21.8538 29.0487 22.6302 29.0487 23.5874V31.9466H22.9866V8.27272H29.0487V19.5673L27.6448 18.1315C28.3042 16.8766 29.2082 15.9407 30.3568 15.3238C31.5054 14.6857 32.8029 14.3667 34.2493 14.3667ZM54.0985 32.2338C52.2054 32.2338 50.5251 31.8509 49.0574 31.0852C47.5897 30.3194 46.4305 29.2665 45.5797 27.9265C44.7502 26.5652 44.3354 25.0125 44.3354 23.2683C44.3354 21.5241 44.7502 19.982 45.5797 18.642C46.4305 17.302 47.5897 16.2597 49.0574 15.5153C50.5251 14.7495 52.2054 14.3667 54.0985 14.3667C55.9915 14.3667 57.6719 14.7495 59.1395 15.5153C60.6285 16.2597 61.7877 17.302 62.6172 18.642C63.4468 19.982 63.8616 21.5241 63.8616 23.2683C63.8616 25.0125 63.4468 26.5652 62.6172 27.9265C61.7877 29.2665 60.6285 30.3194 59.1395 31.0852C57.6719 31.8509 55.9915 32.2338 54.0985 32.2338ZM54.0985 27.416C54.8004 27.416 55.4172 27.2565 55.949 26.9374C56.502 26.6184 56.9381 26.1504 57.2571 25.5336C57.5762 24.8955 57.7357 24.1404 57.7357 23.2683C57.7357 22.3962 57.5762 21.6624 57.2571 21.0668C56.9381 20.45 56.502 19.982 55.949 19.663C55.4172 19.3439 54.8004 19.1844 54.0985 19.1844C53.4178 19.1844 52.801 19.3439 52.2479 19.663C51.7162 19.982 51.2801 20.45 50.9398 21.0668C50.6208 21.6624 50.4612 22.3962 50.4612 23.2683C50.4612 24.1404 50.6208 24.8955 50.9398 25.5336C51.2801 26.1504 51.7162 26.6184 52.2479 26.9374C52.801 27.2565 53.4178 27.416 54.0985 27.416ZM77.5495 32.2338C76.0819 32.2338 74.8269 31.9147 73.7847 31.2766C72.7424 30.6172 71.9448 29.6388 71.3917 28.3413C70.86 27.0225 70.5941 25.3422 70.5941 23.3002C70.5941 21.237 70.8494 19.5566 71.3598 18.2591C71.8703 16.9404 72.6361 15.9619 73.657 15.3238C74.6993 14.6857 75.9968 14.3667 77.5495 14.3667C79.1235 14.3667 80.5486 14.7389 81.8248 15.4834C83.1223 16.2066 84.1433 17.2382 84.8878 18.5782C85.6535 19.897 86.0364 21.471 86.0364 23.3002C86.0364 25.1295 85.6535 26.7141 84.8878 28.0541C84.1433 29.3942 83.1223 30.4258 81.8248 31.149C80.5486 31.8722 79.1235 32.2338 77.5495 32.2338ZM66.6697 38.1363V14.6538H72.4446V17.5891L72.4127 23.3002L72.7318 29.0432V38.1363H66.6697ZM76.2733 27.416C76.9539 27.416 77.5601 27.2565 78.0919 26.9374C78.6449 26.6184 79.081 26.1504 79.4 25.5336C79.7404 24.9168 79.9105 24.1723 79.9105 23.3002C79.9105 22.4281 79.7404 21.6837 79.4 21.0668C79.081 20.45 78.6449 19.982 78.0919 19.663C77.5601 19.3439 76.9539 19.1844 76.2733 19.1844C75.5926 19.1844 74.9758 19.3439 74.4228 19.663C73.891 19.982 73.455 20.45 73.1146 21.0668C72.7956 21.6837 72.6361 22.4281 72.6361 23.3002C72.6361 24.1723 72.7956 24.9168 73.1146 25.5336C73.455 26.1504 73.891 26.6184 74.4228 26.9374C74.9758 27.2565 75.5926 27.416 76.2733 27.416Z" fill="#054396"/>
<path d="M148.745 31.9768V28.7543L148.33 27.9567V22.0223C148.33 21.0651 148.033 20.3313 147.437 19.8208C146.863 19.289 145.938 19.0232 144.661 19.0232C143.832 19.0232 142.992 19.1614 142.141 19.4379C141.29 19.6932 140.567 20.0548 139.971 20.5227L137.929 16.4069C138.908 15.7688 140.078 15.2796 141.439 14.9393C142.821 14.5777 144.193 14.3969 145.555 14.3969C148.362 14.3969 150.532 15.0456 152.063 16.3431C153.616 17.6193 154.393 19.6294 154.393 22.3732V31.9768H148.745ZM143.64 32.2639C142.258 32.2639 141.088 32.03 140.131 31.562C139.174 31.0941 138.44 30.456 137.929 29.6477C137.44 28.8394 137.195 27.9354 137.195 26.9357C137.195 25.8722 137.461 24.9576 137.993 24.1919C138.546 23.4049 139.386 22.8093 140.514 22.4051C141.641 21.9797 143.098 21.767 144.885 21.767H148.969V24.9257H145.714C144.736 24.9257 144.044 25.0852 143.64 25.4043C143.257 25.7233 143.066 26.1487 143.066 26.6805C143.066 27.2122 143.268 27.6377 143.672 27.9567C144.076 28.2758 144.629 28.4353 145.331 28.4353C145.991 28.4353 146.586 28.2758 147.118 27.9567C147.671 27.6164 148.075 27.1059 148.33 26.4252L149.16 28.6586C148.841 29.8498 148.213 30.7538 147.278 31.3706C146.363 31.9662 145.151 32.2639 143.64 32.2639ZM169.099 32.2639C167.631 32.2639 166.376 31.9449 165.334 31.3068C164.292 30.6474 163.494 29.669 162.941 28.3715C162.409 27.0527 162.143 25.3724 162.143 23.3304C162.143 21.2672 162.399 19.5868 162.909 18.2893C163.42 16.9706 164.185 15.9921 165.206 15.354C166.248 14.7159 167.546 14.3969 169.099 14.3969C170.673 14.3969 172.098 14.7691 173.374 15.5136C174.672 16.2368 175.693 17.2684 176.437 18.6084C177.203 19.9272 177.586 21.5012 177.586 23.3304C177.586 25.1597 177.203 26.7443 176.437 28.0843C175.693 29.4244 174.672 30.456 173.374 31.1792C172.098 31.9024 170.673 32.2639 169.099 32.2639ZM158.219 38.1665V14.684H163.994V17.6193L163.962 23.3304L164.281 29.0734V38.1665H158.219ZM167.822 27.4462C168.503 27.4462 169.109 27.2867 169.641 26.9676C170.194 26.6486 170.63 26.1806 170.949 25.5638C171.29 24.947 171.46 24.2025 171.46 23.3304C171.46 22.4583 171.29 21.7139 170.949 21.097C170.63 20.4802 170.194 20.0122 169.641 19.6932C169.109 19.3741 168.503 19.2146 167.822 19.2146C167.142 19.2146 166.525 19.3741 165.972 19.6932C165.44 20.0122 165.004 20.4802 164.664 21.097C164.345 21.7139 164.185 22.4583 164.185 23.3304C164.185 24.2025 164.345 24.947 164.664 25.5638C165.004 26.1806 165.44 26.6486 165.972 26.9676C166.525 27.2867 167.142 27.4462 167.822 27.4462Z" fill="#054396"/>
<path d="M82.68 9.5C83.15 8.85 83.58 8.25 84.04 7.62C85.06 8.32 86.08 9.01 87.13 9.72C86.73 10.36 86.33 10.99 85.9 11.68C84.83 10.95 83.78 10.24 82.68 9.5Z" fill="#054396"/>
<path d="M75.7 5.95C76 5.26 76.3 4.57 76.63 3.83C77.77 4.44 78.9 5.04 80.07 5.65C79.66 6.35 79.28 7 78.9 7.65C77.82 7.08 76.78 6.52 75.7 5.95Z" fill="#054396"/>
<path d="M138.22 39.58C137.2 39.11 136.23 38.67 135.26 38.21C135.18 38.17 135.08 38.02 135.1 37.95C135.33 37.29 135.57 36.65 135.85 35.9C137.04 36.47 138.2 37.03 139.41 37.61C138.98 38.33 138.59 38.97 138.22 39.58Z" fill="#054396"/>
<path d="M73.17 5.07C71.99 4.96 70.91 4.87 69.76 4.76C69.74 4.05 69.71 3.3 69.68 2.44C71.02 2.56 72.33 2.68 73.68 2.81C73.48 3.66 73.32 4.39 73.17 5.07Z" fill="#054396"/>
<path d="M66.6 2.93C66.77 3.68 66.94 4.41 67.1 5.11C66.03 5.49 64.98 5.87 63.89 6.26C63.58 5.65 63.24 4.98 62.87 4.28C64.05 3.65 65.28 3.2 66.6 2.93Z" fill="#054396"/>
<path d="M147.69 39.08C147.2 38.59 146.42 38.59 145.93 39.08L144.16 40.85L142.39 39.08C141.9 38.59 141.12 38.59 140.63 39.08C140.14 39.57 140.14 40.35 140.63 40.84L142.4 42.61L140.63 44.38C140.14 44.87 140.14 45.65 140.63 46.14C140.87 46.38 141.19 46.5 141.51 46.5C141.83 46.5 142.15 46.38 142.39 46.14L144.16 44.37L145.93 46.14C146.17 46.38 146.49 46.5 146.81 46.5C147.13 46.5 147.45 46.38 147.69 46.14C148.18 45.65 148.18 44.87 147.69 44.38L145.92 42.61L147.69 40.84C148.18 40.36 148.18 39.57 147.69 39.08Z" fill="#054396"/>
</svg>
