<svg width="104" height="87" viewBox="0 0 104 87" fill="none" xmlns="http://www.w3.org/2000/svg">
<path d="M102.67 62.72C100.12 42.18 100.24 21.31 103.03 0.799969C94.61 1.56997 86.24 2.80997 77.96 4.49997C75.69 4.95997 73.4 5.46997 71.08 5.44997C69.29 5.43997 67.53 5.10997 65.77 4.78997C61.43 3.98997 57.08 3.19997 52.74 2.39997C47.15 1.36997 41.5 0.339968 35.81 0.509968C31.84 0.629968 27.92 1.32997 24.01 2.01997C16.72 3.31997 9.42999 4.61997 2.13999 5.91997L2.09999 5.79997C3.68999 26.74 4.32999 47.9 0.979989 68.63C0.149989 73.8 -0.890011 79.33 1.30999 84.08C11.02 81.3 20.95 78.5 31.04 79C34.97 79.2 38.87 79.89 42.68 80.87C48.33 82.31 53.83 84.34 59.56 85.39C67.36 86.82 75.37 86.4 83.28 85.98C88.62 85.69 93.95 85.41 99.28 85.12C100.15 85.07 101.08 85 101.75 84.45C102.33 83.97 102.59 83.21 102.79 82.48C104.56 76.08 103.49 69.3 102.67 62.72ZM70.89 68.8L70.81 35.87L54.66 63H48.94L32.86 36.58V68.8H20.95V13.92H31.46L52 48.02L72.23 13.91H82.66L82.82 68.79H70.89V68.8Z" fill="#054396"/>
</svg>
