<svg width="262" height="67" viewBox="0 0 262 67" fill="none" xmlns="http://www.w3.org/2000/svg">
<path d="M193.02 43.77C191.5 31.54 191.58 19.12 193.23 6.91C188.22 7.37 183.23 8.10999 178.3 9.11999C176.95 9.39999 175.58 9.69999 174.2 9.67999C173.14 9.66999 172.08 9.48 171.04 9.29C168.45 8.82 165.87 8.33999 163.28 7.86999C159.95 7.25999 156.59 6.63998 153.2 6.73998C150.84 6.80998 148.5 7.23001 146.18 7.64001C141.84 8.41001 137.5 9.18999 133.16 9.95999L133.13 9.89001C134.08 22.35 134.45 34.95 132.46 47.29C131.96 50.37 131.35 53.66 132.66 56.49C138.44 54.84 144.35 53.17 150.36 53.46C152.7 53.58 155.02 53.99 157.29 54.57C160.65 55.43 163.93 56.64 167.34 57.26C171.98 58.11 176.75 57.86 181.46 57.61C184.64 57.44 187.81 57.27 190.99 57.1C191.51 57.07 192.06 57.03 192.46 56.7C192.8 56.41 192.96 55.96 193.08 55.53C194.15 51.73 193.51 47.69 193.02 43.77ZM174.1 47.4L174.05 27.8L164.44 43.95H161.03L151.46 28.22V47.4H144.36V14.73H150.62L162.85 35.03L174.89 14.73H181.1L181.19 47.4H174.1Z" fill="white"/>
<path d="M15.5171 45.9038C12.841 45.9038 10.2582 45.577 7.7687 44.9236C5.31036 44.239 3.30323 43.3677 1.74732 42.3096L4.78135 35.4947C6.2439 36.4283 7.92429 37.2062 9.82251 37.8286C11.7518 38.4198 13.6656 38.7155 15.5638 38.7155C16.8397 38.7155 17.8666 38.6066 18.6445 38.3887C19.4225 38.1398 19.9826 37.8286 20.3249 37.4552C20.6983 37.0506 20.885 36.5839 20.885 36.0549C20.885 35.308 20.5427 34.7168 19.8581 34.2811C19.1735 33.8455 18.2867 33.4876 17.1975 33.2075C16.1084 32.9275 14.8948 32.6474 13.5567 32.3673C12.2497 32.0873 10.9272 31.7294 9.58912 31.2938C8.28215 30.8581 7.0841 30.298 5.99496 29.6134C4.90582 28.8977 4.01895 27.9797 3.33435 26.8594C2.64974 25.708 2.30744 24.261 2.30744 22.5184C2.30744 20.558 2.83645 18.7842 3.89448 17.1972C4.98362 15.6102 6.60176 14.3343 8.74893 13.3696C10.8961 12.405 13.5723 11.9226 16.7774 11.9226C18.9246 11.9226 21.0251 12.1716 23.0789 12.6695C25.1638 13.1363 27.0153 13.8364 28.6335 14.77L25.7862 21.6315C24.2303 20.7913 22.6899 20.169 21.1651 19.7644C19.6403 19.3288 18.1622 19.111 16.7308 19.111C15.4549 19.111 14.428 19.251 13.6501 19.5311C12.8721 19.78 12.312 20.1223 11.9697 20.558C11.6274 20.9936 11.4562 21.4915 11.4562 22.0516C11.4562 22.7674 11.783 23.343 12.4364 23.7787C13.121 24.1832 14.0079 24.5255 15.0971 24.8056C16.2173 25.0546 17.4309 25.3191 18.7379 25.5991C20.076 25.8792 21.3985 26.237 22.7055 26.6727C24.0436 27.0772 25.2572 27.6374 26.3463 28.3531C27.4354 29.0377 28.3068 29.9557 28.9602 31.1071C29.6448 32.2273 29.9871 33.6432 29.9871 35.3547C29.9871 37.2529 29.4426 39.0111 28.3534 40.6292C27.2954 42.2163 25.6928 43.4921 23.5457 44.4568C21.4296 45.4215 18.7534 45.9038 15.5171 45.9038ZM50.3133 19.5311C52.2738 19.5311 54.0475 19.9356 55.6345 20.7447C57.2216 21.5226 58.4663 22.7362 59.3687 24.3855C60.3023 26.0348 60.7691 28.1664 60.7691 30.7803V45.2503H51.9004V32.2273C51.9004 30.4225 51.5269 29.1155 50.7801 28.3064C50.0644 27.4662 49.053 27.0461 47.7461 27.0461C46.8125 27.0461 45.9568 27.2639 45.1788 27.6996C44.4009 28.1041 43.794 28.7421 43.3584 29.6134C42.9227 30.4847 42.7049 31.6205 42.7049 33.0208V45.2503H33.8362V10.6157H42.7049V27.1395L40.6511 25.039C41.6158 23.203 42.9383 21.8338 44.6187 20.9314C46.2991 19.9978 48.1973 19.5311 50.3133 19.5311ZM79.3525 45.6704C76.583 45.6704 74.1246 45.1103 71.9775 43.99C69.8303 42.8698 68.1344 41.3294 66.8896 39.369C65.676 37.3774 65.0692 35.1057 65.0692 32.5541C65.0692 30.0024 65.676 27.7463 66.8896 25.7858C68.1344 23.8254 69.8303 22.3006 71.9775 21.2114C74.1246 20.0912 76.583 19.5311 79.3525 19.5311C82.122 19.5311 84.5804 20.0912 86.7275 21.2114C88.9058 22.3006 90.6018 23.8254 91.8154 25.7858C93.029 27.7463 93.6358 30.0024 93.6358 32.5541C93.6358 35.1057 93.029 37.3774 91.8154 39.369C90.6018 41.3294 88.9058 42.8698 86.7275 43.99C84.5804 45.1103 82.122 45.6704 79.3525 45.6704ZM79.3525 38.6221C80.3794 38.6221 81.2818 38.3887 82.0598 37.922C82.8689 37.4552 83.5068 36.7706 83.9736 35.8681C84.4403 34.9346 84.6737 33.8299 84.6737 32.5541C84.6737 31.2782 84.4403 30.2046 83.9736 29.3333C83.5068 28.4309 82.8689 27.7463 82.0598 27.2795C81.2818 26.8127 80.3794 26.5793 79.3525 26.5793C78.3567 26.5793 77.4543 26.8127 76.6452 27.2795C75.8673 27.7463 75.2293 28.4309 74.7314 29.3333C74.2647 30.2046 74.0313 31.2782 74.0313 32.5541C74.0313 33.8299 74.2647 34.9346 74.7314 35.8681C75.2293 36.7706 75.8673 37.4552 76.6452 37.922C77.4543 38.3887 78.3567 38.6221 79.3525 38.6221ZM113.661 45.6704C111.514 45.6704 109.678 45.2036 108.153 44.2701C106.628 43.3054 105.461 41.874 104.652 39.9758C103.874 38.0464 103.485 35.5881 103.485 32.6007C103.485 29.5823 103.859 27.1239 104.606 25.2257C105.353 23.2964 106.473 21.8649 107.966 20.9314C109.491 19.9978 111.389 19.5311 113.661 19.5311C115.964 19.5311 118.049 20.0756 119.916 21.1648C121.814 22.2228 123.308 23.732 124.397 25.6925C125.517 27.6218 126.077 29.9246 126.077 32.6007C126.077 35.2769 125.517 37.5952 124.397 39.5557C123.308 41.5161 121.814 43.0253 119.916 44.0834C118.049 45.1414 115.964 45.6704 113.661 45.6704ZM97.7441 54.3057V19.9512H106.193V24.2455L106.146 32.6007L106.613 41.0027V54.3057H97.7441ZM111.794 38.6221C112.79 38.6221 113.677 38.3887 114.455 37.922C115.264 37.4552 115.902 36.7706 116.368 35.8681C116.866 34.9657 117.115 33.8766 117.115 32.6007C117.115 31.3249 116.866 30.2357 116.368 29.3333C115.902 28.4309 115.264 27.7463 114.455 27.2795C113.677 26.8127 112.79 26.5793 111.794 26.5793C110.798 26.5793 109.896 26.8127 109.087 27.2795C108.309 27.7463 107.671 28.4309 107.173 29.3333C106.706 30.2357 106.473 31.3249 106.473 32.6007C106.473 33.8766 106.706 34.9657 107.173 35.8681C107.671 36.7706 108.309 37.4552 109.087 37.922C109.896 38.3887 110.798 38.6221 111.794 38.6221Z" fill="white"/>
<path d="M217.822 45.2953V40.5809L217.216 39.4139V30.7319C217.216 29.3316 216.78 28.258 215.909 27.5112C215.068 26.7332 213.715 26.3443 211.848 26.3443C210.634 26.3443 209.405 26.5465 208.16 26.9511C206.915 27.3245 205.857 27.8535 204.986 28.5381L201.999 22.5167C203.43 21.5832 205.142 20.8674 207.133 20.3696C209.156 19.8405 211.163 19.576 213.155 19.576C217.262 19.576 220.436 20.5251 222.677 22.4234C224.949 24.2905 226.084 27.2311 226.084 31.2454V45.2953H217.822ZM210.354 45.7154C208.331 45.7154 206.62 45.3731 205.22 44.6885C203.819 44.0039 202.746 43.0703 201.999 41.8878C201.283 40.7053 200.925 39.3828 200.925 37.9203C200.925 36.3643 201.314 35.0263 202.092 33.906C202.901 32.7546 204.13 31.8833 205.78 31.2921C207.429 30.6697 209.561 30.3585 212.174 30.3585H218.149V34.9796H213.388C211.957 34.9796 210.945 35.213 210.354 35.6797C209.794 36.1465 209.514 36.7689 209.514 37.5468C209.514 38.3248 209.809 38.9472 210.401 39.4139C210.992 39.8807 211.801 40.1141 212.828 40.1141C213.793 40.1141 214.664 39.8807 215.442 39.4139C216.251 38.916 216.842 38.1692 217.216 37.1734L218.429 40.4408C217.962 42.1835 217.044 43.506 215.675 44.4084C214.337 45.2797 212.563 45.7154 210.354 45.7154ZM247.599 45.7154C245.452 45.7154 243.616 45.2486 242.091 44.3151C240.567 43.3504 239.4 41.919 238.591 40.0207C237.813 38.0914 237.424 35.6331 237.424 32.6457C237.424 29.6272 237.797 27.1689 238.544 25.2707C239.291 23.3414 240.411 21.9099 241.905 20.9764C243.429 20.0428 245.328 19.576 247.599 19.576C249.902 19.576 251.987 20.1206 253.854 21.2097C255.752 22.2678 257.246 23.777 258.335 25.7375C259.455 27.6668 260.016 29.9695 260.016 32.6457C260.016 35.3219 259.455 37.6402 258.335 39.6006C257.246 41.5611 255.752 43.0703 253.854 44.1284C251.987 45.1864 249.902 45.7154 247.599 45.7154ZM231.682 54.3507V19.9961H240.131V24.2905L240.084 32.6457L240.551 41.0476V54.3507H231.682ZM245.732 38.6671C246.728 38.6671 247.615 38.4337 248.393 37.9669C249.202 37.5002 249.84 36.8156 250.307 35.9131C250.805 35.0107 251.053 33.9216 251.053 32.6457C251.053 31.3699 250.805 30.2807 250.307 29.3783C249.84 28.4759 249.202 27.7913 248.393 27.3245C247.615 26.8577 246.728 26.6243 245.732 26.6243C244.736 26.6243 243.834 26.8577 243.025 27.3245C242.247 27.7913 241.609 28.4759 241.111 29.3783C240.644 30.2807 240.411 31.3699 240.411 32.6457C240.411 33.9216 240.644 35.0107 241.111 35.9131C241.609 36.8156 242.247 37.5002 243.025 37.9669C243.834 38.4337 244.736 38.6671 245.732 38.6671Z" fill="white"/>
<path d="M121.17 12.77C121.86 11.82 122.49 10.94 123.16 10.02C124.66 11.04 126.14 12.05 127.68 13.1C127.09 14.03 126.51 14.96 125.87 15.96C124.31 14.89 122.77 13.85 121.17 12.77Z" fill="white"/>
<path d="M110.96 7.57001C111.4 6.55001 111.84 5.55 112.32 4.47C113.99 5.36 115.65 6.24001 117.35 7.14001C116.75 8.17001 116.19 9.12001 115.64 10.07C114.06 9.23001 112.53 8.41001 110.96 7.57001Z" fill="white"/>
<path d="M202.42 56.77C200.93 56.08 199.5 55.43 198.09 54.76C197.97 54.71 197.83 54.48 197.86 54.38C198.19 53.42 198.55 52.47 198.96 51.38C200.71 52.22 202.4 53.03 204.18 53.88C203.53 54.94 202.96 55.88 202.42 56.77Z" fill="white"/>
<path d="M107.25 6.29001C105.53 6.13001 103.94 5.99 102.26 5.84C102.23 4.81 102.19 3.71 102.15 2.44C104.12 2.62 106.02 2.80001 108 2.98001C107.71 4.22001 107.47 5.29001 107.25 6.29001Z" fill="white"/>
<path d="M97.64 3.14999C97.89 4.24999 98.14 5.31999 98.37 6.32999C96.8 6.88999 95.26 7.44001 93.67 8.01001C93.21 7.11001 92.71 6.13999 92.18 5.10999C93.92 4.20999 95.71 3.54999 97.64 3.14999Z" fill="white"/>
<path d="M216.28 56.04C215.57 55.33 214.42 55.33 213.7 56.04L211.12 58.62L208.54 56.04C207.83 55.33 206.68 55.33 205.96 56.04C205.25 56.75 205.25 57.9 205.96 58.62L208.54 61.2L205.96 63.7801C205.25 64.4901 205.25 65.64 205.96 66.36C206.32 66.72 206.78 66.89 207.25 66.89C207.72 66.89 208.18 66.71 208.54 66.36L211.12 63.7801L213.7 66.36C214.06 66.72 214.52 66.89 214.99 66.89C215.46 66.89 215.92 66.71 216.28 66.36C216.99 65.65 216.99 64.5001 216.28 63.7801L213.7 61.2L216.28 58.62C216.99 57.91 216.99 56.76 216.28 56.04Z" fill="white"/>
</svg>
