<svg width="23" height="19" viewBox="0 0 23 19" fill="none" xmlns="http://www.w3.org/2000/svg">
<path d="M1.58999 15.62C2.24999 14.37 2.89998 13.12 3.57998 11.83C3.45998 11.76 3.35002 11.7 3.25002 11.64C2.53002 11.23 1.87998 10.73 1.32998 10.1C-0.480019 8.03003 -0.389927 5.29003 1.55007 3.34003C3.01007 1.87003 4.81999 1.13003 6.83999 0.870032C9.16999 0.560032 11.39 0.900033 13.46 2.07003C14.72 2.78003 15.7401 3.74003 16.2801 5.12003C17.0601 7.12003 16.54 8.87003 15.09 10.36C13.48 12.01 11.4301 12.7 9.18008 12.89C8.19008 12.98 7.21002 12.89 6.24002 12.71C6.10002 12.68 5.90004 12.74 5.77004 12.83C4.49004 13.7 3.21997 14.58 1.93997 15.46C1.83997 15.53 1.74004 15.59 1.64004 15.66C1.62004 15.65 1.59999 15.64 1.58999 15.62ZM3.98001 5.77003C3.98001 6.35003 3.98001 6.91003 3.98001 7.48003C4.56001 7.48003 5.11998 7.48003 5.69998 7.48003C5.69998 6.90003 5.69998 6.35003 5.69998 5.77003C5.12998 5.77003 4.57 5.77003 3.98001 5.77003ZM12.76 5.79003C12.16 5.79003 11.6001 5.79003 11.0501 5.79003C11.0501 6.38003 11.0501 6.92003 11.0501 7.49003C11.6301 7.49003 12.18 7.49003 12.76 7.49003C12.76 6.91003 12.76 6.35003 12.76 5.79003ZM9.23001 5.78003C8.66001 5.78003 8.10005 5.78003 7.53005 5.78003C7.53005 6.36003 7.53005 6.92003 7.53005 7.49003C8.11005 7.49003 8.66001 7.49003 9.23001 7.49003C9.23001 6.92003 9.23001 6.37003 9.23001 5.78003Z" fill="white"/>
<path d="M8.12 14.2701C9.74 14.2001 11.28 13.9501 12.77 13.3801C14.49 12.7201 15.97 11.7401 17.03 10.2001C17.93 8.89008 18.2599 7.46007 17.9399 5.89007C17.9299 5.82007 17.92 5.76007 17.9 5.68007C17.94 5.67007 17.98 5.65007 18 5.66007C19.53 6.28007 20.81 7.21007 21.58 8.71007C22.48 10.4701 22.12 12.4801 20.61 13.9701C20.12 14.4601 19.51 14.8201 18.95 15.2401C18.88 15.2901 18.8 15.3401 18.71 15.4001C19.34 16.5901 19.96 17.7701 20.58 18.9501C20.56 18.9601 20.55 18.9801 20.53 18.9901C20.17 18.7401 19.7999 18.4901 19.4399 18.2401C18.5199 17.6101 17.61 16.9801 16.7 16.3401C16.51 16.2001 16.33 16.1801 16.09 16.2201C13.46 16.6801 11 16.2901 8.77002 14.7701C8.53002 14.6201 8.33 14.4401 8.12 14.2701Z" fill="white"/>
</svg>
