<svg width="23" height="22" viewBox="0 0 23 22" fill="none" xmlns="http://www.w3.org/2000/svg">
<path d="M3.30005 12.66C3.71005 12.66 4.07005 12.66 4.42005 12.66C5.23005 12.66 5.71005 12.2 5.71005 11.39C5.72005 9.77003 5.71005 8.14 5.71005 6.52C5.71005 6.39 5.71005 6.26001 5.71005 6.09001C6.07005 6.09001 6.39005 6.09001 6.70005 6.09001C7.13005 6.09001 7.47005 5.93 7.68005 5.55C7.90005 5.16 7.85005 4.77001 7.61005 4.40001C7.45005 4.16001 7.29005 3.91002 7.09005 3.63002C9.65005 2.18002 12.26 1.97002 14.92 3.16002C17.48 4.31002 19.03 6.33 19.71 9.11C19.25 9.11 18.8501 9.11 18.4401 9.11C17.4901 9.11 17.0501 9.55002 17.0501 10.51C17.0501 12.08 17.0501 13.66 17.0501 15.23C17.0501 15.36 17.0501 15.5 17.0501 15.68C16.7101 15.68 16.3901 15.68 16.0801 15.68C15.6401 15.68 15.29 15.84 15.07 16.23C14.85 16.63 14.9101 17.01 15.1601 17.38C15.3101 17.6 15.46 17.83 15.64 18.09C13.12 19.42 10.57 19.58 8.00005 18.41C5.54005 17.29 4.01005 15.34 3.30005 12.66ZM12.43 5.63002C12.43 5.29002 12.43 4.96002 12.43 4.63002C12.43 4.33002 12.2801 4.17003 11.9801 4.17003C11.6601 4.17003 11.34 4.17003 11.02 4.17003C10.71 4.17003 10.57 4.32001 10.57 4.62001C10.57 4.88001 10.56 5.14003 10.57 5.39003C10.58 5.60003 10.51 5.7 10.32 5.77C10.07 5.87 9.83005 5.99002 9.60005 6.13002C7.90005 7.19002 7.55005 10.07 9.83005 11.12C10.2801 11.32 10.7401 11.49 11.1901 11.69C11.6201 11.89 12.09 12.05 12.46 12.34C13.1 12.84 12.8901 13.84 12.1201 14.13C11.3401 14.42 10.4301 14.05 10.0801 13.28C9.98005 13.05 9.83005 12.94 9.57005 12.95C9.29005 12.96 9.00005 12.94 8.72005 12.96C8.41005 12.97 8.24005 13.18 8.30005 13.48C8.49005 14.4 8.89005 15.24 9.77005 15.61C10.47 15.9 10.6701 16.29 10.5801 16.97C10.5301 17.29 10.7401 17.44 11.0501 17.45C11.1701 17.46 11.3 17.45 11.42 17.45C12.44 17.45 12.4501 17.45 12.43 16.43C12.42 16.07 12.5001 15.89 12.8701 15.73C14.0801 15.22 14.7301 14.27 14.7601 12.95C14.7901 11.65 14.0701 10.85 12.9401 10.36C12.4101 10.13 11.8601 9.95002 11.3301 9.72002C11.0201 9.58002 10.7 9.42002 10.46 9.19002C9.99005 8.75002 10.1 7.95001 10.64 7.59001C11.33 7.15001 12.49 7.41001 12.82 8.15001C13.02 8.59001 13.29 8.70002 13.71 8.66002C13.88 8.64002 14.0501 8.67001 14.2301 8.65001C14.6001 8.63001 14.73 8.46002 14.67 8.10002C14.65 7.99002 14.63 7.88001 14.6 7.78001C14.27 6.67001 13.55 5.97002 12.43 5.63002Z" fill="#054396"/>
<path d="M2.58 8.44002C2.58 7.52002 2.58 6.60003 2.58 5.67003C2.58 5.22003 2.56 5.20003 2.09 5.20003C1.67 5.20003 1.25 5.21003 0.84 5.20003C0.73 5.20003 0.61 5.14001 0.5 5.12001C0.53 5.01001 0.539998 4.88002 0.599998 4.79002C1.56 3.35002 2.52 1.91001 3.48 0.470015C3.67 0.180015 3.76 0.180024 3.96 0.480025C4.92 1.92002 5.88 3.36 6.84 4.8C6.9 4.89 6.91 5.00002 6.95 5.10002C6.84 5.14002 6.73 5.20003 6.62 5.20003C6.2 5.21003 5.78 5.2 5.37 5.21C4.87 5.21 4.86 5.22002 4.86 5.73002C4.86 7.52002 4.86 9.32 4.86 11.11C4.86 11.77 4.84 11.79 4.17 11.79C3.81 11.79 3.46 11.79 3.1 11.79C2.64 11.79 2.58 11.73 2.58 11.28C2.58 10.34 2.58 9.39002 2.58 8.44002Z" fill="#054396"/>
<path d="M20.2101 13.33C20.2101 14.26 20.2201 15.2 20.2001 16.13C20.1901 16.47 20.3101 16.59 20.6501 16.58C21.1001 16.56 21.5601 16.57 22.0101 16.58C22.3201 16.59 22.3801 16.7 22.2101 16.96C21.2401 18.42 20.2601 19.88 19.2901 21.34C19.1401 21.57 19.0001 21.57 18.8501 21.34C17.8801 19.88 16.9001 18.42 15.9301 16.96C15.7501 16.69 15.8101 16.59 16.1301 16.58C16.5801 16.57 17.0401 16.56 17.4901 16.58C17.8401 16.6 17.9401 16.46 17.9301 16.13C17.9201 14.3 17.9201 12.47 17.9301 10.64C17.9301 10.02 17.9601 9.99999 18.5701 9.98999C18.9501 9.98999 19.3301 9.98999 19.7101 9.98999C20.1301 9.98999 20.2001 10.06 20.2001 10.49C20.2101 11.43 20.2101 12.38 20.2101 13.33Z" fill="#054396"/>
</svg>
