<svg width="14" height="12" viewBox="0 0 14 12" fill="none" xmlns="http://www.w3.org/2000/svg">
<path d="M9.4201 5.96993C9.3601 5.94993 9.30005 5.92994 9.24005 5.91994C7.38005 5.71994 5.5301 5.51991 3.6701 5.32991C3.4301 5.30991 3.30011 5.22993 3.18011 5.00993C2.49011 3.73993 1.78001 2.47992 1.07001 1.20992C1.00001 1.08992 0.87006 0.969932 1.00006 0.819932C1.13006 0.679932 1.27007 0.789921 1.39007 0.839921C3.95007 1.85992 6.50012 2.87992 9.06012 3.89992C10.6301 4.52992 12.2101 5.15993 13.7801 5.78993C13.8501 5.81993 13.94 5.87994 13.97 5.94994C14.02 6.08994 13.9201 6.15994 13.8001 6.19994C13.0201 6.50994 12.25 6.81993 11.47 7.12993C9.27003 8.00993 7.06005 8.88991 4.86005 9.76991C3.67005 10.2399 2.48009 10.7199 1.28009 11.1899C1.21009 11.2199 1.10009 11.2399 1.03009 11.2099C0.89009 11.1399 0.92005 11.0099 0.99005 10.8999C1.34005 10.2799 1.6901 9.64991 2.0401 9.01991C2.4401 8.28991 2.85006 7.56992 3.25006 6.83992C3.30006 6.73992 3.37004 6.69993 3.48004 6.68993C5.39004 6.48993 7.29001 6.28992 9.20001 6.08992C9.27001 6.07992 9.34009 6.05993 9.41009 6.03993C9.42009 6.01993 9.4201 5.99993 9.4201 5.96993Z" fill="#55A0FE"/>
</svg>
