<svg width="21" height="21" viewBox="0 0 21 21" fill="none" xmlns="http://www.w3.org/2000/svg">
<path d="M8.63008 20.51C8.43009 19.79 8.24009 19.1 8.05009 18.41C8.00009 18.24 7.93009 18.15 7.75009 18.09C7.28009 17.92 6.82009 17.72 6.37009 17.52C6.23009 17.46 6.13009 17.45 5.99009 17.53C5.36009 17.9 4.72009 18.26 4.09009 18.61C3.39009 17.91 2.70009 17.21 1.99009 16.5C2.34009 15.89 2.69009 15.25 3.06009 14.62C3.14009 14.48 3.14009 14.37 3.07009 14.22C2.87009 13.77 2.67009 13.32 2.51009 12.86C2.44009 12.67 2.35009 12.59 2.17009 12.54C1.48009 12.36 0.790088 12.16 0.0900879 11.97C0.0900879 10.99 0.0900879 10.01 0.0900879 9.02002C0.560088 8.89002 1.04009 8.75 1.52009 8.62C1.64009 8.59 1.75009 8.53003 1.87009 8.53003C2.31009 8.50003 2.50009 8.25003 2.61009 7.84003C2.70009 7.48003 2.89009 7.13999 3.06009 6.79999C3.14009 6.64999 3.15009 6.53 3.06009 6.38C2.69009 5.76 2.34009 5.12001 1.99009 4.51001C2.69009 3.81001 3.38009 3.11997 4.10009 2.40997C4.70009 2.74997 5.35009 3.10998 5.99009 3.47998C6.11009 3.54998 6.21009 3.56 6.34009 3.5C6.81009 3.29 7.28009 3.08997 7.76009 2.90997C7.90009 2.85997 7.98009 2.79001 8.02009 2.64001C8.21009 1.93001 8.41009 1.23001 8.61009 0.51001C9.59009 0.51001 10.5701 0.51001 11.5701 0.51001C11.7601 1.20001 11.9601 1.89002 12.1401 2.58002C12.1901 2.76002 12.2701 2.84998 12.4501 2.91998C12.9201 3.08998 13.3701 3.28999 13.8301 3.48999C13.9601 3.54999 14.0601 3.55998 14.1801 3.47998C14.8201 3.10998 15.4601 2.75001 16.1001 2.39001C16.8001 3.09001 17.4801 3.77999 18.1901 4.48999C17.8901 5.01999 17.5901 5.59 17.2501 6.13C17.0601 6.43001 17.0301 6.67 17.2201 7C17.4201 7.35 17.5501 7.75001 17.6801 8.14001C17.7401 8.32001 17.8301 8.4 18.0001 8.44C18.6901 8.62 19.3801 8.82001 20.1001 9.01001C20.1001 9.13001 20.1001 9.24999 20.1001 9.35999C20.1001 10.16 20.1001 10.95 20.1001 11.75C20.1001 11.91 20.0501 11.97 19.9001 12.01C19.2501 12.18 18.6101 12.37 17.9701 12.54C17.8101 12.58 17.7401 12.66 17.6801 12.81C17.5001 13.28 17.3101 13.75 17.1001 14.21C17.0301 14.35 17.0401 14.45 17.1201 14.59C17.4901 15.22 17.8501 15.86 18.2001 16.49C17.5001 17.19 16.8001 17.88 16.0901 18.58C15.4701 18.22 14.8201 17.86 14.1801 17.49C14.0501 17.42 13.9601 17.43 13.8301 17.49C13.3601 17.7 12.8901 17.9 12.4101 18.08C12.2701 18.13 12.2001 18.19 12.1601 18.33C11.9801 18.99 11.8001 19.65 11.6101 20.31C11.5901 20.38 11.5001 20.48 11.4401 20.48C10.5201 20.51 9.59009 20.51 8.63008 20.51ZM13.9601 10.53C13.9901 8.41003 12.2701 6.67001 10.1301 6.64001C8.02009 6.62001 6.27009 8.34001 6.25009 10.45C6.23009 12.57 7.94009 14.32 10.0701 14.35C12.1901 14.38 13.9401 12.67 13.9601 10.53Z" fill="#054396"/>
</svg>
