<svg width="25" height="21" viewBox="0 0 25 21" fill="none" xmlns="http://www.w3.org/2000/svg">
<path d="M8.48 19.29C8.41 19.24 8.34 19.2 8.27 19.14C7.95 18.88 7.63 18.63 7.31 18.36C7.26 18.32 7.21 18.29 7.14 18.29C6.04 18.29 4.94 18.29 3.84 18.29C3.35 18.29 2.97 17.92 2.98 17.44C2.98 16.99 3.36 16.61 3.81 16.61C4.43 16.61 5.05 16.61 5.67 16.61C5.7 16.61 5.74 16.61 5.79 16.61C4.72 15.02 4.13 13.28 4.06 11.38C3.98 9.47999 4.42 7.69998 5.35 6.01998C5.3 6.01998 5.26 6.01998 5.23 6.01998C3.98 6.01998 2.73 6.01998 1.48 6.01998C1.11 6.01998 0.790002 5.79 0.680002 5.45C0.500002 4.91 0.890003 4.35999 1.47 4.33999C1.59 4.33999 1.72 4.33999 1.84 4.33999C3.38 4.33999 4.92 4.33999 6.46 4.33999C6.52 4.33999 6.57 4.32999 6.61 4.27999C7.16 3.66999 7.77 3.13 8.45 2.67C8.46 2.66 8.47 2.64998 8.51 2.61998C8.45 2.61998 8.41 2.61998 8.38 2.61998C7.23 2.61998 6.07 2.61998 4.92 2.61998C4.52 2.61998 4.21 2.38998 4.09 2.01998C3.93 1.49998 4.32 0.959991 4.86 0.939991C4.89 0.939991 4.92 0.939991 4.96 0.939991C8.01 0.939991 11.05 0.929991 14.1 0.939991C16.21 0.949991 18.14 1.56 19.86 2.79C21.69 4.1 22.95 5.83998 23.63 7.98998C23.85 8.67998 23.98 9.38997 24.04 10.11C24.08 10.62 24.09 11.14 24.05 11.65C23.91 13.55 23.28 15.28 22.16 16.83C21.1 18.28 19.76 19.37 18.12 20.1C17.45 20.4 16.75 20.62 16.02 20.77C15.44 20.88 14.85 20.94 14.26 20.94C10.01 20.94 5.76 20.93 1.51 20.94C1.15 20.94 0.830002 20.65 0.750002 20.35C0.610002 19.83 0.960002 19.32 1.5 19.28C1.55 19.28 1.6 19.28 1.64 19.28C3.88 19.28 6.12 19.28 8.37 19.28C8.41 19.28 8.45 19.28 8.49 19.28C8.47 19.3 8.47 19.3 8.48 19.29ZM7.98 10.98C7.99 14.3 10.68 17.05 14.05 17.05C17.39 17.05 20.11 14.34 20.13 11C20.15 7.64999 17.41 4.92999 14.1 4.90999C10.78 4.87999 7.98 7.58 7.98 10.98Z" fill="#054396"/>
<path d="M18.7201 10.17C18.9501 11.79 18.5001 13.19 17.3501 14.37C16.9101 13.77 16.4801 13.18 16.0601 12.59C16.1701 12.4 16.2801 12.23 16.3801 12.04C16.5501 11.69 16.6201 11.31 16.6201 10.92C16.6201 10.87 16.6301 10.83 16.6901 10.82C17.3601 10.61 18.0201 10.39 18.6901 10.17C18.6801 10.18 18.7001 10.18 18.7201 10.17Z" fill="#054396"/>
<path d="M9.38996 10.17C10.09 10.4 10.78 10.62 11.47 10.85C11.48 11.03 11.49 11.2 11.52 11.38C11.58 11.8 11.74 12.17 12 12.51C12.05 12.57 12.05 12.61 12 12.67C11.61 13.2 11.22 13.74 10.84 14.27C10.82 14.3 10.79 14.34 10.77 14.37C9.75996 13.63 9.02996 11.41 9.38996 10.17Z" fill="#054396"/>
<path d="M13.38 6.28C13.38 7.03 13.38 7.76 13.38 8.5C13.29 8.53 13.19 8.56001 13.1 8.60001C12.64 8.79001 12.26 9.07999 11.98 9.48999C11.93 9.55999 11.89 9.56999 11.81 9.54999C11.16 9.32999 10.5 9.12 9.85004 8.91C9.84004 8.91 9.83005 8.90001 9.80005 8.89001C10.57 7.44001 11.75 6.57 13.38 6.28Z" fill="#054396"/>
<path d="M16.25 15.16C14.96 15.89 13.17 15.9 11.84 15.16C11.96 15 12.07 14.84 12.19 14.68C12.49 14.27 12.79 13.86 13.08 13.45C13.12 13.39 13.15 13.39 13.22 13.41C13.78 13.6 14.33 13.6 14.89 13.4C14.94 13.38 14.97 13.39 15 13.43C15.41 14 15.83 14.57 16.24 15.14C16.25 15.14 16.25 15.15 16.25 15.16Z" fill="#054396"/>
<path d="M14.72 6.29001C16.34 6.58001 17.53 7.44001 18.3 8.89001C18.07 8.97001 17.85 9.03999 17.63 9.10999C17.18 9.25999 16.72 9.39999 16.27 9.54999C16.21 9.56999 16.18 9.56001 16.14 9.51001C15.8 9.04001 15.36 8.71001 14.81 8.54001C14.74 8.52001 14.72 8.49001 14.72 8.42001C14.72 7.75001 14.72 7.07999 14.72 6.39999C14.72 6.35999 14.72 6.33001 14.72 6.29001Z" fill="#054396"/>
<path d="M14.0399 12.2C13.3699 12.2 12.8199 11.65 12.8199 10.97C12.8199 10.3 13.3699 9.75 14.0399 9.75C14.7099 9.75 15.2699 10.31 15.2599 10.98C15.2699 11.65 14.7199 12.2 14.0399 12.2Z" fill="#054396"/>
</svg>
