<svg width="21" height="21" viewBox="0 0 21 21" fill="none" xmlns="http://www.w3.org/2000/svg">
<path d="M1.03011 19.81C1.16011 19.34 1.27011 18.92 1.38011 18.5C1.58011 17.74 1.79011 16.99 1.98011 16.23C2.01011 16.13 1.99011 15.98 1.93011 15.89C-0.429893 12.06 -0.0498936 7.22002 2.98011 3.90002C5.50011 1.14002 8.67011 0.090011 12.3301 0.770011C16.4801 1.54001 19.6401 4.86001 20.3101 9.02001C20.9701 13.15 18.9601 17.34 15.2701 19.31C11.7901 21.17 8.33011 21.01 4.96011 18.96C4.80011 18.86 4.66011 18.84 4.48011 18.89C3.41011 19.18 2.35011 19.46 1.28011 19.75C1.22011 19.76 1.15011 19.78 1.03011 19.81ZM8.93011 12.74C9.84011 12.74 10.7701 12.74 11.7101 12.74C11.7101 12.47 11.7201 12.22 11.7101 11.97C11.6901 11.68 11.8001 11.45 11.9901 11.25C12.1201 11.12 12.2601 10.99 12.4001 10.87C12.7101 10.59 13.0301 10.33 13.3301 10.04C13.7101 9.65997 13.9901 9.21999 14.0801 8.68999C14.4101 6.75999 13.2601 4.60001 10.7301 4.46001C9.50011 4.39001 8.4701 4.85998 7.5901 5.67998C7.2701 5.96998 6.99011 6.3 6.68011 6.63C7.30011 7.2 7.88011 7.73997 8.47011 8.28997C8.52011 8.22997 8.56011 8.18001 8.60011 8.14001C8.88011 7.86001 9.14011 7.53998 9.46011 7.29998C9.92011 6.94998 10.5001 6.97999 10.9201 7.30999C11.3701 7.65999 11.4401 8.19 11.0901 8.63C10.9501 8.81 10.7701 8.95999 10.6101 9.11999C10.2201 9.48999 9.79011 9.82997 9.44011 10.23C9.22011 10.47 9.02011 10.8 8.98011 11.11C8.88011 11.63 8.93011 12.19 8.93011 12.74ZM8.61011 15.07C8.60011 15.97 9.34011 16.71 10.2501 16.72C11.1601 16.73 11.8901 16 11.9001 15.09C11.9001 14.18 11.1801 13.44 10.2801 13.43C9.36011 13.41 8.62011 14.15 8.61011 15.07Z" fill="#054396"/>
</svg>
